<svg width="12.857117" height="21.428589" viewBox="0 0 12.8571 21.4286" fill="none" xmlns="http://www.w3.org/2000/svg" xmlns:xlink="http://www.w3.org/1999/xlink">

	<defs/>
	<path id="Icon" d="M0.32 14.13C-0.11 14.55 -0.11 15.23 0.3 15.65L5.66 21.1C5.86 21.31 6.14 21.42 6.42 21.42C6.71 21.42 6.99 21.31 7.19 21.1L12.55 15.65C12.96 15.23 12.95 14.55 12.53 14.13C12.11 13.72 11.43 13.72 11.02 14.15L7.5 17.73L7.5 1.07C7.5 0.47 7.02 0 6.42 0C5.83 0 5.35 0.47 5.35 1.07L5.35 17.73L1.83 14.15C1.42 13.72 0.74 13.72 0.32 14.13Z" fill="currentColor" fill-opacity="1.000000" fill-rule="evenodd"/>
</svg>
