<svg width="30.000000" height="30.000000" viewBox="0 0 30 30" fill="none" xmlns="http://www.w3.org/2000/svg" xmlns:xlink="http://www.w3.org/1999/xlink">
	
	<defs/>
	<path id="Icon" d="M29.51 2.84C30.16 2.19 30.16 1.13 29.51 0.48C28.86 -0.17 27.8 -0.17 27.15 0.48L15 12.64L2.84 0.48C2.19 -0.17 1.13 -0.17 0.48 0.48C-0.17 1.13 -0.17 2.19 0.48 2.84L12.64 15L0.48 27.15C-0.17 27.8 -0.17 28.86 0.48 29.51C1.13 30.16 2.19 30.16 2.84 29.51L15 17.35L27.15 29.51C27.8 30.16 28.86 30.16 29.51 29.51C30.16 28.86 30.16 27.8 29.51 27.15L17.35 15L29.51 2.84Z" fill="currentColor" fill-opacity="1.000000" fill-rule="evenodd"/>
</svg>
