<svg width="48.000000" height="48.000000" viewBox="0 0 48 48" fill="none" xmlns="http://www.w3.org/2000/svg" xmlns:xlink="http://www.w3.org/1999/xlink">
	
	<defs>
		<clipPath id="clip7_1027">
			<rect id="icons/eye" rx="0.000000" width="47.000000" height="47.000000" transform="translate(0.500000 0.500000)" fill="white" fill-opacity="0"/>
		</clipPath>
	</defs>
	<rect id="icons/eye" rx="0.000000" width="47.000000" height="47.000000" transform="translate(0.500000 0.500000)" fill="transparent" fill-opacity="1.000000"/>
	<g clip-path="url(#clip7_1027)">
		<path id="Icon" d="M8.71 23.16C8.52 23.48 8.36 23.76 8.23 24C8.36 24.23 8.52 24.51 8.71 24.83C9.33 25.86 10.29 27.24 11.61 28.61C14.25 31.34 18.26 34 23.99 34C29.73 34 33.74 31.34 36.38 28.61C37.7 27.24 38.66 25.86 39.28 24.83C39.47 24.51 39.63 24.23 39.76 24C39.63 23.76 39.47 23.48 39.28 23.16C38.66 22.13 37.7 20.75 36.38 19.38C33.74 16.65 29.73 14 23.99 14C18.26 14 14.25 16.65 11.61 19.38C10.29 20.75 9.33 22.13 8.71 23.16ZM43.83 24.79C43.83 24.78 43.83 24.78 41.99 24L43.83 24.79C44.05 24.28 44.05 23.71 43.83 23.21L41.99 24C43.83 23.21 43.83 23.21 43.83 23.21L43.83 23.2L43.83 23.2L43.82 23.19L43.81 23.15C43.79 23.11 43.77 23.07 43.75 23.02C43.7 22.91 43.63 22.76 43.53 22.58C43.35 22.21 43.07 21.69 42.7 21.08C41.96 19.86 40.83 18.24 39.26 16.61C36.1 13.34 31.11 10 23.99 10C16.87 10 11.89 13.34 8.73 16.61C7.16 18.24 6.03 19.86 5.29 21.08C4.92 21.69 4.64 22.21 4.46 22.58C4.36 22.76 4.29 22.91 4.24 23.02C4.22 23.07 4.2 23.11 4.18 23.15L4.17 23.19L4.16 23.2L4.16 23.2L4.16 23.21C4.16 23.21 4.16 23.21 5.99 24L4.16 23.21C3.94 23.71 3.94 24.28 4.16 24.78L5.99 24C4.16 24.78 4.16 24.78 4.16 24.78L4.16 24.79L4.16 24.79L4.17 24.8L4.18 24.84C4.2 24.88 4.22 24.92 4.24 24.97C4.29 25.08 4.36 25.23 4.46 25.41C4.64 25.78 4.92 26.3 5.29 26.91C6.03 28.13 7.16 29.75 8.73 31.38C11.89 34.65 16.87 38 23.99 38C31.11 38 36.1 34.65 39.26 31.38C40.83 29.75 41.96 28.13 42.7 26.91C43.07 26.3 43.35 25.78 43.53 25.41C43.63 25.23 43.7 25.08 43.75 24.97C43.77 24.92 43.79 24.88 43.81 24.84L43.82 24.8L43.83 24.79L43.83 24.79L43.83 24.79ZM23.99 28C21.79 28 19.99 26.2 19.99 24C19.99 21.79 21.79 20 23.99 20C26.2 20 27.99 21.79 27.99 24C27.99 26.2 26.2 28 23.99 28ZM15.99 24C15.99 19.58 19.58 16 23.99 16C28.41 16 31.99 19.58 31.99 24C31.99 28.41 28.41 32 23.99 32C19.58 32 15.99 28.41 15.99 24Z" fill="currentColor" fill-opacity="1.000000" fill-rule="evenodd"/>
	</g>
</svg>
