<svg width="48.000000" height="48.000000" viewBox="0 0 48 48" fill="none" xmlns="http://www.w3.org/2000/svg" xmlns:xlink="http://www.w3.org/1999/xlink">
	
	<defs>
		<clipPath id="clip41_379">
			<rect id="Icons_tabbar" rx="0.000000" width="47.000000" height="47.000000" transform="translate(0.500000 0.500000)" fill="white" fill-opacity="0"/>
		</clipPath>
	</defs>
	<g clip-path="url(#clip41_379)">
		<path id="Icon" d="M15.1 4.33C14.49 3.92 13.7 3.88 13.05 4.23C12.4 4.58 12 5.26 12 6L12 15C12 21.62 17.37 27 24 27C30.62 27 36 21.62 36 15L36 6C36 5.26 35.59 4.58 34.94 4.23C34.29 3.88 33.5 3.92 32.89 4.33L28.25 7.42L25.41 4.58C24.63 3.8 23.36 3.8 22.58 4.58L19.74 7.42L15.1 4.33ZM16 15L16 9.73L18.89 11.66C19.68 12.19 20.74 12.08 21.41 11.41L24 8.82L26.58 11.41C27.25 12.08 28.31 12.19 29.1 11.66L32 9.73L32 15C32 19.41 28.41 23 24 23C19.58 23 16 19.41 16 15ZM22.25 39.98C17.21 39.7 13.09 35.99 12.18 31.14C17.95 31.93 21.32 35.81 22.03 39.39C22.08 39.6 22.15 39.8 22.25 39.98ZM35.81 31.14C34.9 35.99 30.78 39.7 25.74 39.98C25.84 39.8 25.91 39.6 25.96 39.39C26.67 35.81 30.04 31.93 35.81 31.14ZM10.14 27C8.97 26.99 8 27.93 8 29.12C8 37.34 14.65 44 22.87 44L24 44L25.12 44C33.34 44 40 37.34 40 29.12C40 27.93 39.02 26.99 37.85 27C31.43 27.04 26.61 30.01 24 33.93C21.38 30.01 16.56 27.04 10.14 27Z" fill="currentColor" fill-opacity="1.000000" fill-rule="evenodd"/>
	</g>
</svg>
