<svg width="42.666992" height="42.666016" viewBox="0 0 42.667 42.666" fill="none" xmlns="http://www.w3.org/2000/svg" xmlns:xlink="http://www.w3.org/1999/xlink">
	
	<defs>
		<clipPath id="clip264_2329">
			<rect id="icons/Abstract/oval-love" rx="0.000000" width="41.333336" height="41.333336" transform="translate(0.666667 0.666667)" fill="white" fill-opacity="0"/>
		</clipPath>
	</defs>
	<g clip-path="url(#clip264_2329)">
		<path id="Vector" d="M25.11 36.73C19.59 39.91 11.13 35.61 6.22 27.11C1.31 18.6 1.81 9.12 7.33 5.93C12.86 2.74 21.32 7.05 26.23 15.55C31.14 24.05 30.64 33.53 25.11 36.73Z" stroke="currentColor" stroke-opacity="1.000000" stroke-width="2.666667" stroke-linejoin="round"/>
		<path id="Vector" d="M17.34 36.73C22.87 39.91 31.33 35.61 36.24 27.11C41.15 18.6 40.65 9.12 35.12 5.93C29.59 2.74 21.13 7.05 16.23 15.55C11.32 24.05 11.82 33.53 17.34 36.73Z" stroke="currentColor" stroke-opacity="1.000000" stroke-width="2.666667" stroke-linejoin="round"/>
		<path id="Vector" d="M21.11 9.19C23.01 10.89 24.78 13.03 26.23 15.55C31.14 24.05 30.64 33.53 25.11 36.73C23.96 37.39 22.68 37.73 21.33 37.77" stroke="currentColor" stroke-opacity="1.000000" stroke-width="2.666667" stroke-linejoin="round" stroke-linecap="round"/>
	</g>
</svg>
