<svg width="48.000000" height="48.000000" viewBox="0 0 48 48" fill="none" xmlns="http://www.w3.org/2000/svg" xmlns:xlink="http://www.w3.org/1999/xlink">
	
	<defs>
		<clipPath id="clip41_374">
			<rect id="Business/Business 13 - 24px" rx="0.000000" width="47.000000" height="47.000000" transform="translate(0.500000 0.500000)" fill="currentColor" fill-opacity="0"/>
		</clipPath>
	</defs>
	<g clip-path="url(#clip41_374)">
		<path id="Icon" d="M25.77 7.8C25.77 7.2 25.49 6.65 25.01 6.32C24.53 5.98 23.92 5.9 23.37 6.11L9.15 11.51C8.45 11.77 8 12.44 8 13.2L8 40.2C8 41.19 8.79 42 9.77 42C10.75 42 11.55 41.19 11.55 40.2L11.55 14.44L22.22 10.39L22.22 24L22.22 40.2C22.22 41.19 23.01 42 24 42C24.98 42 25.77 41.19 25.77 40.2L25.77 26.3L36.44 29L36.44 40.2C36.44 41.19 37.24 42 38.22 42C39.2 42 40 41.19 40 40.2L40 27.6C40 26.77 39.44 26.05 38.65 25.85L25.77 22.59L25.77 7.8ZM16 15C15.01 15 14.22 15.8 14.22 16.79L14.22 18.6C14.22 19.59 15.01 20.39 16 20.39L17.77 20.39C18.75 20.39 19.55 19.59 19.55 18.6L19.55 16.79C19.55 15.8 18.75 15 17.77 15L16 15ZM14.22 25.8C14.22 24.8 15.01 24 16 24L17.77 24C18.75 24 19.55 24.8 19.55 25.8L19.55 27.6C19.55 28.59 18.75 29.39 17.77 29.39L16 29.39C15.01 29.39 14.22 28.59 14.22 27.6L14.22 25.8ZM16 33C15.01 33 14.22 33.8 14.22 34.8L14.22 36.6C14.22 37.59 15.01 38.39 16 38.39L17.77 38.39C18.75 38.39 19.55 37.59 19.55 36.6L19.55 34.8C19.55 33.8 18.75 33 17.77 33L16 33ZM30.22 31.2C29.24 31.2 28.44 32 28.44 33L28.44 34.8C28.44 35.79 29.24 36.6 30.22 36.6L32 36.6C32.98 36.6 33.77 35.79 33.77 34.8L33.77 33C33.77 32 32.98 31.2 32 31.2L30.22 31.2Z" fill="currentColor" fill-opacity="1.000000" fill-rule="evenodd"/>
	</g>
</svg>
