<svg width="48.000000" height="48.000000" viewBox="0 0 48 48" fill="none" xmlns="http://www.w3.org/2000/svg" xmlns:xlink="http://www.w3.org/1999/xlink">
	<desc>
			Created with Pixso.
	</desc>
	<defs/>
	<rect id="icons/kidsgarden" rx="0.000000" width="47.000000" height="47.000000" transform="translate(0.500000 0.500000)" fill="#FCFEFF" fill-opacity="1.000000"/>
	<path id="Vector" d="M22.33 13.79C22.57 13.18 22.27 12.5 21.66 12.26C21.06 12.02 20.37 12.32 20.14 12.93L22.33 13.79ZM26.35 22.03C27 22.03 27.53 21.5 27.53 20.85C27.53 20.2 27 19.68 26.35 19.68L26.35 22.03ZM21.23 13.36L20.94 12.22L20.94 12.22L21.23 13.36ZM34.61 21.16L33.47 21.46C33.57 21.81 33.82 22.1 34.16 22.24C34.49 22.38 34.87 22.36 35.19 22.18L34.61 21.16ZM34.89 25.39L35.33 24.3C34.99 24.16 34.61 24.19 34.3 24.38C33.98 24.56 33.77 24.88 33.72 25.24L34.89 25.39ZM13.1 25.39L14.27 25.24C14.22 24.88 14.01 24.56 13.69 24.38C13.38 24.19 13 24.16 12.66 24.3L13.1 25.39ZM13.38 21.16L12.8 22.18C13.12 22.36 13.5 22.38 13.83 22.24C14.17 22.1 14.42 21.81 14.52 21.46L13.38 21.16ZM20.14 12.93C18.92 16.04 20.19 19.58 23.12 21.2L24.26 19.14C22.37 18.09 21.54 15.8 22.33 13.79L20.14 12.93ZM23.12 21.2C24.11 21.75 25.22 22.03 26.35 22.03L26.35 19.68C25.62 19.68 24.9 19.49 24.26 19.14L23.12 21.2ZM21.53 14.5C26.75 13.15 32.08 16.26 33.47 21.46L35.75 20.85C34.02 14.4 27.41 10.55 20.94 12.22L21.53 14.5ZM35.19 22.18C35.67 21.91 36.27 22.01 36.64 22.41L38.38 20.83C37.27 19.61 35.47 19.32 34.03 20.13L35.19 22.18ZM36.64 22.41C37.01 22.82 37.05 23.43 36.73 23.88L38.67 25.22C39.61 23.87 39.48 22.05 38.38 20.83L36.64 22.41ZM36.73 23.88C36.42 24.33 35.84 24.5 35.33 24.3L34.46 26.49C35.98 27.1 37.73 26.57 38.67 25.22L36.73 23.88ZM33.72 25.24C33.1 30.14 28.93 33.81 24 33.81L24 36.16C30.12 36.16 35.28 31.61 36.06 25.54L33.72 25.24ZM24 33.81C19.06 33.81 14.89 30.14 14.27 25.24L11.93 25.54C12.71 31.61 17.87 36.16 24 36.16L24 33.81ZM12.66 24.3C12.15 24.5 11.57 24.33 11.26 23.88L9.32 25.22C10.26 26.57 12.01 27.1 13.53 26.49L12.66 24.3ZM11.26 23.88C10.94 23.43 10.98 22.82 11.35 22.41L9.61 20.83C8.51 22.05 8.38 23.87 9.32 25.22L11.26 23.88ZM11.35 22.41C11.72 22.01 12.32 21.91 12.8 22.18L13.96 20.13C12.52 19.32 10.72 19.61 9.61 20.83L11.35 22.41ZM14.52 21.46C15.43 18.05 18.11 15.39 21.53 14.5L20.94 12.22C16.7 13.32 13.38 16.62 12.24 20.85L14.52 21.46Z" fill="#EBACF1" fill-opacity="1.000000" fill-rule="nonzero"/>
	<path id="Vector" d="M19.29 24.78C18.86 24.78 18.51 24.43 18.51 23.99C18.51 23.56 18.86 23.21 19.29 23.21C19.72 23.21 20.08 23.56 20.08 23.99C20.08 24.43 19.72 24.78 19.29 24.78Z" fill="#EBACF1" fill-opacity="1.000000" fill-rule="nonzero"/>
	<path id="Vector" d="M19.29 25.56C18.42 25.56 17.72 24.86 17.72 23.99C17.72 23.12 18.42 22.42 19.29 22.42C20.15 22.42 20.86 23.12 20.86 23.99C20.86 24.86 20.15 25.56 19.29 25.56Z" fill="#EBACF1" fill-opacity="1.000000" fill-rule="nonzero"/>
	<path id="Vector" d="M28.71 24.78C28.27 24.78 27.92 24.43 27.92 23.99C27.92 23.56 28.27 23.21 28.71 23.21C29.14 23.21 29.49 23.56 29.49 23.99C29.49 24.43 29.14 24.78 28.71 24.78Z" fill="#EBACF1" fill-opacity="1.000000" fill-rule="nonzero"/>
	<path id="Vector" d="M28.7 25.56C27.84 25.56 27.13 24.86 27.13 23.99C27.13 23.12 27.84 22.42 28.7 22.42C29.57 22.42 30.27 23.12 30.27 23.99C30.27 24.86 29.57 25.56 28.7 25.56Z" fill="#EBACF1" fill-opacity="1.000000" fill-rule="nonzero"/>
</svg>
