<svg width="48.000000" height="48.000000" viewBox="0 0 48 48" fill="none" xmlns="http://www.w3.org/2000/svg" xmlns:xlink="http://www.w3.org/1999/xlink">
	<desc>
			Created with Pixso.
	</desc>
	<defs/>
	<rect id="icons/sport" rx="0.000000" width="47.000000" height="47.000000" transform="translate(0.500000 0.500000)" fill="#FCFEFF" fill-opacity="1.000000"/>
	<path id="Vector" d="M9.69 17.92C9.69 15.64 11.56 13.79 13.86 13.79L14.55 13.79C16.86 13.79 18.72 15.64 18.72 17.92L18.72 19.99L29.26 19.99L29.26 17.92C29.26 15.64 31.13 13.79 33.44 13.79L34.12 13.79C36.43 13.79 38.3 15.64 38.3 17.92L38.3 22.54L39.8 22.54L39.8 25.45L38.3 25.45L38.3 30.07C38.3 32.35 36.43 34.2 34.12 34.2L33.44 34.2C31.13 34.2 29.26 32.35 29.26 30.07L29.26 28L18.72 28L18.72 30.07C18.72 32.35 16.86 34.2 14.55 34.2L13.86 34.2C11.56 34.2 9.69 32.35 9.69 30.07L9.69 25.45L8.18 25.45L8.18 22.54L9.69 22.54L9.69 17.92ZM31.85 28L31.9 28L31.9 25.45L31.85 25.45L31.85 22.54L31.9 22.54L31.9 19.99L31.85 19.99L31.85 17.92C31.85 17.05 32.56 16.35 33.44 16.35L34.12 16.35C35 16.35 35.71 17.05 35.71 17.92L35.71 30.07C35.71 30.94 35 31.64 34.12 31.64L33.44 31.64C32.56 31.64 31.85 30.94 31.85 30.07L31.85 28ZM29.26 22.54L29.26 25.45L18.72 25.45L18.72 22.54L29.26 22.54ZM16.14 17.92L16.14 19.99L16.09 19.99L16.09 22.54L16.14 22.54L16.14 25.45L16.09 25.45L16.09 28L16.14 28L16.14 30.07C16.14 30.94 15.43 31.64 14.55 31.64L13.86 31.64C12.99 31.64 12.28 30.94 12.28 30.07L12.28 17.92C12.28 17.05 12.99 16.35 13.86 16.35L14.55 16.35C15.43 16.35 16.14 17.05 16.14 17.92Z" fill="#ECD07C" fill-opacity="1.000000" fill-rule="evenodd"/>
</svg>
