<svg width="48.000000" height="48.000000" viewBox="0 0 48 48" fill="none" xmlns="http://www.w3.org/2000/svg" xmlns:xlink="http://www.w3.org/1999/xlink">
	<desc>
			Created with Pixso.
	</desc>
	<defs>
		<clipPath id="clip2_84">
			<rect id="Shopping / basket" rx="0.000000" width="29.314285" height="29.314285" transform="translate(9.342857 9.342857)" fill="white" fill-opacity="0"/>
		</clipPath>
	</defs>
	<rect id="icons/shop" rx="0.000000" width="47.000000" height="47.000000" transform="translate(0.500000 0.500000)" fill="#FCFEFF" fill-opacity="1.000000"/>
	<rect id="Shopping / basket" rx="0.000000" width="29.314285" height="29.314285" transform="translate(9.342857 9.342857)" fill="#FFFFFF" fill-opacity="0"/>
	<g clip-path="url(#clip2_84)">
		<path id="Vector" d="M26.5 31.5C26.83 31.5 27.14 31.36 27.38 31.13C27.61 30.89 27.75 30.58 27.75 30.25L27.75 27.75C27.75 27.41 27.61 27.1 27.38 26.86C27.14 26.63 26.83 26.5 26.5 26.5C26.16 26.5 25.85 26.63 25.61 26.86C25.38 27.1 25.25 27.41 25.25 27.75L25.25 30.25C25.25 30.58 25.38 30.89 25.61 31.13C25.85 31.36 26.16 31.5 26.5 31.5ZM21.5 31.5C21.83 31.5 22.14 31.36 22.38 31.13C22.61 30.89 22.75 30.58 22.75 30.25L22.75 27.75C22.75 27.41 22.61 27.1 22.38 26.86C22.14 26.63 21.83 26.5 21.5 26.5C21.16 26.5 20.85 26.63 20.61 26.86C20.38 27.1 20.25 27.41 20.25 27.75L20.25 30.25C20.25 30.58 20.38 30.89 20.61 31.13C20.85 31.36 21.16 31.5 21.5 31.5ZM32.75 16.5L31.02 16.5L28.86 12.18C28.79 12.02 28.69 11.88 28.57 11.76C28.45 11.64 28.3 11.55 28.14 11.49C27.98 11.43 27.8 11.41 27.63 11.41C27.46 11.42 27.29 11.47 27.14 11.55C26.99 11.62 26.85 11.73 26.74 11.87C26.63 12 26.55 12.15 26.5 12.32C26.46 12.48 26.44 12.66 26.46 12.83C26.49 13 26.54 13.16 26.63 13.31L28.22 16.5L19.77 16.5L21.36 13.31C21.48 13.02 21.49 12.69 21.38 12.39C21.27 12.1 21.05 11.85 20.77 11.71C20.49 11.57 20.16 11.54 19.86 11.63C19.55 11.71 19.3 11.91 19.13 12.18L16.97 16.5L15.25 16.5C14.36 16.51 13.51 16.83 12.84 17.41C12.18 17.99 11.74 18.79 11.6 19.66C11.46 20.53 11.64 21.43 12.09 22.18C12.55 22.94 13.26 23.51 14.1 23.79L15.02 33.12C15.11 34.05 15.55 34.91 16.24 35.53C16.94 36.16 17.84 36.5 18.77 36.5L29.25 36.5C30.18 36.5 31.08 36.16 31.77 35.53C32.47 34.91 32.9 34.05 33 33.12L33.92 23.79C34.76 23.51 35.47 22.94 35.93 22.18C36.38 21.42 36.56 20.52 36.41 19.65C36.27 18.77 35.83 17.98 35.16 17.4C34.48 16.82 33.63 16.5 32.75 16.5ZM30.48 32.87C30.45 33.18 30.31 33.47 30.08 33.67C29.84 33.88 29.54 34 29.23 34L18.76 34C18.45 34 18.15 33.88 17.91 33.67C17.68 33.47 17.54 33.18 17.51 32.87L16.62 24L31.37 24L30.48 32.87ZM32.75 21.5L15.25 21.5C14.91 21.5 14.6 21.36 14.36 21.13C14.13 20.89 14 20.58 14 20.25C14 19.91 14.13 19.6 14.36 19.36C14.6 19.13 14.91 19 15.25 19L32.75 19C33.08 19 33.39 19.13 33.63 19.36C33.86 19.6 34 19.91 34 20.25C34 20.58 33.86 20.89 33.63 21.13C33.39 21.36 33.08 21.5 32.75 21.5Z" fill="#B9E08A" fill-opacity="1.000000" fill-rule="nonzero"/>
	</g>
</svg>
