<svg width="48.000000" height="48.000000" viewBox="0 0 48 48" fill="none" xmlns="http://www.w3.org/2000/svg" xmlns:xlink="http://www.w3.org/1999/xlink">
	<desc>
			Created with Pixso.
	</desc>
	<defs>
		<clipPath id="clip2_1366">
			<rect id="Business/Business 7 - 24px" rx="0.000000" width="29.000000" height="29.000000" transform="translate(9.500000 9.500000)" fill="white" fill-opacity="0"/>
		</clipPath>
	</defs>
	<rect id="icons/hospital" rx="0.000000" width="47.000000" height="47.000000" transform="translate(0.500000 0.500000)" fill="#FCFEFF" fill-opacity="1.000000"/>
	<g clip-path="url(#clip2_1366)">
		<path id="Icon" d="M19 20.25L17.75 20.25L17.75 32.75L30.25 32.75L30.25 20.25L29 20.25L26.5 20.25L21.5 20.25L19 20.25ZM32.75 20.25L32.75 32.75C33.44 32.75 34 32.19 34 31.5L34 21.5C34 20.8 33.44 20.25 32.75 20.25ZM15.25 20.25L15.25 32.75C14.55 32.75 14 32.19 14 31.5L14 21.5C14 20.8 14.55 20.25 15.25 20.25ZM29 17.75L32.75 17.75C34.82 17.75 36.5 19.42 36.5 21.5L36.5 31.5C36.5 33.57 34.82 35.25 32.75 35.25L15.25 35.25C13.17 35.25 11.5 33.57 11.5 31.5L11.5 21.5C11.5 19.42 13.17 17.75 15.25 17.75L19 17.75L19 16.5C19 14.42 20.67 12.75 22.75 12.75L25.25 12.75C27.32 12.75 29 14.42 29 16.5L29 17.75ZM26.5 17.75L25.25 17.75L24 17.75L22.75 17.75L21.5 17.75L21.5 16.5C21.5 15.8 22.05 15.25 22.74 15.25L22.75 15.25L25.25 15.25L25.25 15.25C25.94 15.25 26.5 15.8 26.5 16.5L26.5 17.75ZM19.62 26.5C19.62 25.8 20.18 25.25 20.87 25.25L22.75 25.25L22.75 23.37C22.75 22.68 23.3 22.12 24 22.12C24.69 22.12 25.25 22.68 25.25 23.37L25.25 25.25L27.12 25.25C27.81 25.25 28.37 25.8 28.37 26.5C28.37 27.19 27.81 27.75 27.12 27.75L25.25 27.75L25.25 29.62C25.25 30.31 24.69 30.87 24 30.87C23.3 30.87 22.75 30.31 22.75 29.62L22.75 27.75L20.87 27.75C20.18 27.75 19.62 27.19 19.62 26.5Z" fill="#EB8F8F" fill-opacity="1.000000" fill-rule="evenodd"/>
	</g>
</svg>
