<svg width="48.000000" height="48.000000" viewBox="0 0 48 48" fill="none" xmlns="http://www.w3.org/2000/svg" xmlns:xlink="http://www.w3.org/1999/xlink">
	<desc>
			Created with Pixso.
	</desc>
	<defs/>
	<rect id="icons/school" rx="0.000000" width="47.000000" height="47.000000" transform="translate(0.500000 0.500000)" fill="#FCFEFF" fill-opacity="1.000000"/>
	<path id="Vector" d="M35.07 20.92C35.23 20.92 35.39 20.89 35.54 20.82C35.69 20.76 35.83 20.67 35.94 20.56C36.06 20.44 36.15 20.31 36.21 20.16C36.27 20.01 36.3 19.85 36.3 19.69L36.3 16C36.3 15.74 36.22 15.48 36.07 15.28C35.92 15.07 35.71 14.91 35.46 14.83L24.38 11.14C24.13 11.05 23.86 11.05 23.61 11.14L12.53 14.83C12.28 14.91 12.07 15.07 11.92 15.28C11.77 15.48 11.69 15.74 11.69 16L11.69 19.69C11.69 19.85 11.72 20.01 11.78 20.16C11.84 20.31 11.93 20.44 12.05 20.56C12.16 20.67 12.3 20.76 12.45 20.82C12.6 20.89 12.76 20.92 12.92 20.92L14.15 20.92L14.15 29.76C13.43 30.01 12.81 30.48 12.37 31.1C11.93 31.72 11.69 32.46 11.69 33.23L11.69 35.69C11.69 35.85 11.72 36.01 11.78 36.16C11.84 36.31 11.93 36.44 12.05 36.56C12.16 36.67 12.3 36.76 12.45 36.82C12.6 36.89 12.76 36.92 12.92 36.92L35.07 36.92C35.23 36.92 35.39 36.89 35.54 36.82C35.69 36.76 35.83 36.67 35.94 36.56C36.06 36.44 36.15 36.31 36.21 36.16C36.27 36.01 36.3 35.85 36.3 35.69L36.3 33.23C36.3 32.46 36.06 31.72 35.62 31.1C35.18 30.48 34.56 30.01 33.84 29.76L33.84 20.92L35.07 20.92ZM33.84 34.46L14.15 34.46L14.15 33.23C14.15 32.9 14.28 32.59 14.51 32.36C14.74 32.12 15.05 32 15.38 32L32.61 32C32.94 32 33.25 32.12 33.48 32.36C33.71 32.59 33.84 32.9 33.84 33.23L33.84 34.46ZM16.61 29.53L16.61 20.92L19.07 20.92L19.07 29.53L16.61 29.53ZM21.53 29.53L21.53 20.92L26.46 20.92L26.46 29.53L21.53 29.53ZM28.92 29.53L28.92 20.92L31.38 20.92L31.38 29.53L28.92 29.53ZM14.15 18.46L14.15 16.88L24 13.6L33.84 16.88L33.84 18.46L14.15 18.46Z" fill="#8AC7E0" fill-opacity="1.000000" fill-rule="nonzero"/>
</svg>
