<svg width="20.000000" height="28.000000" viewBox="0 0 20 28" fill="none" xmlns="http://www.w3.org/2000/svg" xmlns:xlink="http://www.w3.org/1999/xlink">
	<defs/>
	<path id="Icon" d="M16.14 13.79L10 23.73L3.85 13.79C0.87 8.97 4.33 2.75 10 2.75C15.66 2.75 19.12 8.97 16.14 13.79ZM1.51 15.24C-2.61 8.59 2.17 0 10 0C17.82 0 22.6 8.59 18.48 15.24L10.91 27.48C10.49 28.17 9.5 28.17 9.08 27.48L1.51 15.24ZM10 6.89C8.47 6.89 7.24 8.13 7.24 9.65C7.24 11.18 8.47 12.41 10 12.41C11.52 12.41 12.75 11.18 12.75 9.65C12.75 8.13 11.52 6.89 10 6.89Z" fill="currentColor" fill-opacity="1.000000" fill-rule="evenodd"/>
</svg>
