<svg xmlns="http://www.w3.org/2000/svg" width="26" height="26" viewBox="0 0 26 26" fill="none">
<path fill-rule="evenodd" clip-rule="evenodd" d="M0.978718 25.021C0.219985 24.2623 0.219985 23.0321 0.978718 22.2734L22.2727 0.97936C23.0315 0.220627 24.2616 0.220627 25.0203 0.97936C25.7791 1.73809 25.7791 2.96824 25.0203 3.72697L3.72633 25.021C2.9676 25.7797 1.73745 25.7797 0.978718 25.021Z" fill="currentColor"/>
<path fill-rule="evenodd" clip-rule="evenodd" d="M0.978719 0.979358C1.73745 0.220626 2.9676 0.220626 3.72633 0.979359L25.0203 22.2734C25.7791 23.0321 25.7791 24.2623 25.0203 25.021C24.2616 25.7797 23.0315 25.7797 22.2727 25.021L0.978718 3.72697C0.219986 2.96824 0.219986 1.73809 0.978719 0.979358Z" fill="currentColor"/>
</svg>