<svg width="32.666016" height="32.666992" viewBox="0 0 32.666 32.667" fill="none" xmlns="http://www.w3.org/2000/svg" xmlns:xlink="http://www.w3.org/1999/xlink">
	
	<defs/>
	<path id="Icon" d="M5.71 9.79C7.97 9.79 9.8 7.97 9.8 5.71L9.8 1.63C9.8 0.73 9.06 0 8.16 0C7.26 0 6.53 0.73 6.53 1.63L6.53 5.71C6.53 6.16 6.16 6.53 5.71 6.53L1.63 6.53C0.73 6.53 0 7.26 0 8.16C0 9.06 0.73 9.79 1.63 9.79L5.71 9.79ZM26.94 9.79C24.69 9.79 22.86 7.97 22.86 5.71L22.86 1.63C22.86 0.73 23.59 0 24.5 0C25.4 0 26.13 0.73 26.13 1.63L26.13 5.71C26.13 6.16 26.49 6.53 26.94 6.53L31.03 6.53C31.93 6.53 32.66 7.26 32.66 8.16C32.66 9.06 31.93 9.79 31.03 9.79L26.94 9.79ZM9.8 26.95C9.8 24.69 7.97 22.86 5.71 22.86L1.63 22.86C0.73 22.86 0 23.59 0 24.5C0 25.4 0.73 26.13 1.63 26.13L5.71 26.13C6.16 26.13 6.53 26.49 6.53 26.95L6.53 31.03C6.53 31.93 7.26 32.66 8.16 32.66C9.06 32.66 9.8 31.93 9.8 31.03L9.8 26.95ZM26.94 22.86C24.69 22.86 22.86 24.69 22.86 26.95L22.86 31.03C22.86 31.93 23.59 32.66 24.5 32.66C25.4 32.66 26.13 31.93 26.13 31.03L26.13 26.95C26.13 26.49 26.49 26.13 26.94 26.13L31.03 26.13C31.93 26.13 32.66 25.4 32.66 24.5C32.66 23.59 31.93 22.86 31.03 22.86L26.94 22.86Z" fill="currentColor" fill-opacity="1.000000" fill-rule="evenodd"/>
</svg>
