<svg width="32.666016" height="32.666992" viewBox="0 0 32.666 32.667" fill="none" xmlns="http://www.w3.org/2000/svg" xmlns:xlink="http://www.w3.org/1999/xlink">
	<desc>
			Created with Pixso.
	</desc>
	<defs/>
	<path id="Icon" d="M4.08 0C1.82 0 0 1.82 0 4.08L0 8.16C0 9.06 0.73 9.79 1.63 9.79C2.53 9.79 3.26 9.06 3.26 8.16L3.26 4.08C3.26 3.63 3.63 3.26 4.08 3.26L8.16 3.26C9.06 3.26 9.8 2.53 9.8 1.63C9.8 0.73 9.06 0 8.16 0L4.08 0ZM28.58 0C30.83 0 32.66 1.82 32.66 4.08L32.66 8.16C32.66 9.06 31.93 9.79 31.03 9.79C30.13 9.79 29.4 9.06 29.4 8.16L29.4 4.08C29.4 3.63 29.03 3.26 28.58 3.26L24.5 3.26C23.59 3.26 22.86 2.53 22.86 1.63C22.86 0.73 23.59 0 24.5 0L28.58 0ZM0 28.58C0 30.83 1.82 32.66 4.08 32.66L8.16 32.66C9.06 32.66 9.8 31.93 9.8 31.03C9.8 30.13 9.06 29.4 8.16 29.4L4.08 29.4C3.63 29.4 3.26 29.03 3.26 28.58L3.26 24.5C3.26 23.59 2.53 22.86 1.63 22.86C0.73 22.86 0 23.59 0 24.5L0 28.58ZM28.58 32.66C30.83 32.66 32.66 30.83 32.66 28.58L32.66 24.5C32.66 23.59 31.93 22.86 31.03 22.86C30.13 22.86 29.4 23.59 29.4 24.5L29.4 28.58C29.4 29.03 29.03 29.4 28.58 29.4L24.5 29.4C23.59 29.4 22.86 30.13 22.86 31.03C22.86 31.93 23.59 32.66 24.5 32.66L28.58 32.66Z" fill="currentColor" fill-opacity="1.000000" fill-rule="evenodd"/>
</svg>
