<svg width="31.898756" height="31.898682" viewBox="0 0 31.8988 31.8987" fill="none" xmlns="http://www.w3.org/2000/svg" xmlns:xlink="http://www.w3.org/1999/xlink">
	<desc>
			Created with Pixso.
	</desc>
	<defs>
		<clipPath id="clip41_396">
			<rect id="icons/Weather/sun-one" rx="0.000000" width="30.898756" height="30.898756" transform="translate(0.500000 0.500000)" fill="white" fill-opacity="0"/>
		</clipPath>
	</defs>
	<g clip-path="url(#clip41_396)">
		<path id="Vector" d="M24.58 15.94C24.58 11.17 20.72 7.31 15.94 7.31C11.17 7.31 7.31 11.17 7.31 15.94C7.31 20.72 11.17 24.58 15.94 24.58C20.72 24.58 24.58 20.72 24.58 15.94Z" stroke="#3FC88B" stroke-opacity="1.000000" stroke-width="2.000000" stroke-linejoin="round"/>
		<path id="Vector" d="M15.94 3.98C16.86 3.98 17.61 3.24 17.61 2.32C17.61 1.4 16.86 0.66 15.94 0.66C15.03 0.66 14.28 1.4 14.28 2.32C14.28 3.24 15.03 3.98 15.94 3.98Z" fill="#3FC88B" fill-opacity="1.000000" fill-rule="nonzero"/>
		<path id="Vector" d="M25.58 7.97C26.5 7.97 27.24 7.23 27.24 6.31C27.24 5.39 26.5 4.65 25.58 4.65C24.66 4.65 23.92 5.39 23.92 6.31C23.92 7.23 24.66 7.97 25.58 7.97Z" fill="#3FC88B" fill-opacity="1.000000" fill-rule="nonzero"/>
		<path id="Vector" d="M29.57 17.61C30.49 17.61 31.23 16.86 31.23 15.94C31.23 15.03 30.49 14.28 29.57 14.28C28.65 14.28 27.91 15.03 27.91 15.94C27.91 16.86 28.65 17.61 29.57 17.61Z" fill="#3FC88B" fill-opacity="1.000000" fill-rule="nonzero"/>
		<path id="Vector" d="M25.58 27.24C26.5 27.24 27.24 26.5 27.24 25.58C27.24 24.66 26.5 23.92 25.58 23.92C24.66 23.92 23.92 24.66 23.92 25.58C23.92 26.5 24.66 27.24 25.58 27.24Z" fill="#3FC88B" fill-opacity="1.000000" fill-rule="nonzero"/>
		<path id="Vector" d="M15.94 31.23C16.86 31.23 17.61 30.49 17.61 29.57C17.61 28.65 16.86 27.91 15.94 27.91C15.03 27.91 14.28 28.65 14.28 29.57C14.28 30.49 15.03 31.23 15.94 31.23Z" fill="#3FC88B" fill-opacity="1.000000" fill-rule="nonzero"/>
		<path id="Vector" d="M6.31 27.24C7.23 27.24 7.97 26.5 7.97 25.58C7.97 24.66 7.23 23.92 6.31 23.92C5.39 23.92 4.65 24.66 4.65 25.58C4.65 26.5 5.39 27.24 6.31 27.24Z" fill="#3FC88B" fill-opacity="1.000000" fill-rule="nonzero"/>
		<path id="Vector" d="M2.32 17.61C3.24 17.61 3.98 16.86 3.98 15.94C3.98 15.03 3.24 14.28 2.32 14.28C1.4 14.28 0.66 15.03 0.66 15.94C0.66 16.86 1.4 17.61 2.32 17.61Z" fill="#3FC88B" fill-opacity="1.000000" fill-rule="nonzero"/>
		<path id="Vector" d="M6.31 7.97C7.23 7.97 7.97 7.23 7.97 6.31C7.97 5.39 7.23 4.65 6.31 4.65C5.39 4.65 4.65 5.39 4.65 6.31C4.65 7.23 5.39 7.97 6.31 7.97Z" fill="#3FC88B" fill-opacity="1.000000" fill-rule="nonzero"/>
	</g>
</svg>
