<svg width="157.434570" height="15.400391" viewBox="0 0 157.435 15.4004" fill="none" xmlns="http://www.w3.org/2000/svg" xmlns:xlink="http://www.w3.org/1999/xlink">
	<desc>
			Created with Pixso.
	</desc>
	<defs>
		<clipPath id="clip264_2294">
			<rect id="absolutbank-1669936472-logotic-brand" rx="0.000000" width="156.842102" height="14.809068" transform="translate(0.296053 0.296053)" fill="white" fill-opacity="0"/>
		</clipPath>
	</defs>
	<rect id="absolutbank-1669936472-logotic-brand" rx="0.000000" width="156.842102" height="14.809068" transform="translate(0.296053 0.296053)" fill="#FFFFFF" fill-opacity="0"/>
	<g clip-path="url(#clip264_2294)">
		<path id="Vector" d="M153.79 7.34C155.84 7.34 157.5 5.69 157.5 3.67C157.5 1.64 155.84 0 153.79 0C151.75 0 150.09 1.64 150.09 3.67C150.09 5.69 151.75 7.34 153.79 7.34Z" fill="#00F500" fill-opacity="1.000000" fill-rule="nonzero"/>
		<path id="Vector" d="M113.72 12.32C111.84 12.32 110.36 10.85 110.36 8.95C110.36 7.04 111.84 5.57 113.72 5.57C115.6 5.57 117.13 7.04 117.13 8.95C117.13 10.85 115.6 12.32 113.72 12.32ZM117.13 5.47L116.73 5.47C115.99 4.14 114.6 3.39 113.02 3.39C110.42 3.39 108 5.81 108 8.95C108 12.08 110.36 14.47 113.02 14.47C114.6 14.47 115.99 13.71 116.73 12.38L117.13 12.38L117.13 14.19L119.45 14.19L119.45 3.65L117.13 3.65L117.13 5.47ZM5.72 12.32C3.84 12.32 2.36 10.85 2.36 8.95C2.36 7.04 3.84 5.57 5.72 5.57C7.6 5.57 9.12 7.04 9.12 8.95C9.12 10.85 7.6 12.32 5.72 12.32ZM9.12 5.47L8.72 5.47C7.98 4.14 6.6 3.39 5.02 3.39C2.42 3.39 0 5.81 0 8.95C0 12.08 2.36 14.47 5.02 14.47C6.6 14.47 7.98 13.71 8.72 12.38L9.12 12.38L9.12 14.19L11.44 14.19L11.44 3.65L9.12 3.65L9.12 5.47ZM130.52 7.82L125.07 7.82L125.07 3.65L122.75 3.65L122.75 14.21L125.07 14.21L125.07 10.02L130.52 10.02L130.52 14.21L132.84 14.21L132.84 3.65L130.52 3.65L130.52 7.82ZM141.04 8.81L146.55 3.65L143.37 3.65L138.42 8.49L138.42 3.65L136.1 3.65L136.1 14.21L138.42 14.21L138.42 9.34L143.41 14.21L146.83 14.21L141.04 8.81ZM102.47 12.14L98.73 12.14L98.73 9.48L102.47 9.48C103.54 9.48 104.04 10.04 104.04 10.81C104.04 11.59 103.56 12.14 102.47 12.14ZM102.73 7.42L98.71 7.42L98.71 5.69L105.54 5.69L105.54 3.65L96.39 3.65L96.39 14.21L102.75 14.21C104.94 14.21 106.42 12.78 106.42 10.83C106.42 8.89 104.9 7.42 102.73 7.42ZM74.51 12.3C72.59 12.3 71.17 10.83 71.17 8.95C71.17 7.04 72.59 5.57 74.51 5.57C76.37 5.57 77.86 7.04 77.86 8.95C77.86 10.83 76.41 12.3 74.51 12.3ZM74.51 3.39C71.71 3.39 69.45 5.3 68.95 7.83L66.99 7.83L66.99 3.65L64.65 3.65L64.65 14.21L66.97 14.21L66.97 10L68.93 10C69.41 12.56 71.71 14.49 74.49 14.49C77.64 14.49 80.18 12.02 80.18 8.97C80.2 5.85 77.64 3.39 74.51 3.39ZM81.04 5.83L84.94 5.83L84.94 14.19L87.26 14.19L87.26 5.83L91.17 5.83L91.17 3.65L81.04 3.65L81.04 5.83ZM55.38 3.65L50.81 14.21L53.28 14.21L56.82 5.77L60.36 14.21L62.92 14.21L58.36 3.65L55.38 3.65ZM32 5.55C34.28 5.55 34.92 7.3 34.92 7.3L37.38 7.3C37.38 7.3 36.4 3.39 32 3.39C28.84 3.39 26.36 5.85 26.36 8.95C26.36 12.06 28.84 14.5 32 14.5C36.4 14.5 37.38 10.59 37.38 10.59L34.92 10.59C34.92 10.59 34.28 12.34 32 12.34C30.14 12.34 28.74 10.87 28.74 8.97C28.74 7.06 30.14 5.55 32 5.55ZM20.85 12.1L17.07 12.1L17.07 9.48L20.83 9.48C21.89 9.48 22.39 10.04 22.39 10.81C22.39 11.59 21.93 12.1 20.85 12.1ZM21.13 7.42L17.07 7.42L17.07 5.71L23.91 5.71L23.91 3.65L14.75 3.65L14.75 14.21L21.13 14.21C23.29 14.21 24.79 12.78 24.79 10.83C24.79 8.89 23.27 7.42 21.13 7.42ZM44.47 12.3C42.51 12.3 41.07 10.83 41.07 8.95C41.07 7.04 42.51 5.57 44.47 5.57C46.37 5.57 47.87 7.04 47.87 8.95C47.87 10.83 46.41 12.3 44.47 12.3ZM44.47 3.39C41.25 3.39 38.71 5.85 38.71 8.95C38.71 12.02 41.25 14.47 44.47 14.47C47.67 14.47 50.25 12 50.25 8.95C50.25 5.85 47.61 3.39 44.47 3.39Z" fill="#FF5000" fill-opacity="1.000000" fill-rule="nonzero"/>
	</g>
</svg>
