<svg width="124.934082" height="24.986328" viewBox="0 0 124.934 24.9863" fill="none" xmlns="http://www.w3.org/2000/svg" xmlns:xlink="http://www.w3.org/1999/xlink">
	<desc>
			Created with Pixso.
	</desc>
	<defs>
		<clipPath id="clip264_2239">
			<rect id="Лого дополнительная версия красный 1" rx="0.000000" width="124.342102" height="24.394730" transform="translate(0.296056 0.296056)" fill="white" fill-opacity="0"/>
		</clipPath>
	</defs>
	<rect id="Лого дополнительная версия красный 1" rx="0.000000" width="124.342102" height="24.394730" transform="translate(0.296056 0.296056)" fill="#FFFFFF" fill-opacity="0"/>
	<g clip-path="url(#clip264_2239)">
		<path id="Vector" d="M121.22 4.91L116.93 9.64L116.93 4.91L113.83 4.91L113.83 16.85L116.93 16.85L116.93 11.82L121.52 16.85L125.52 16.85L119.88 10.59L125.11 4.91L121.22 4.91Z" fill="#EF3124" fill-opacity="1.000000" fill-rule="nonzero"/>
		<path id="Vector" d="M108.37 9.36L104.09 9.36L104.09 4.91L100.99 4.91L100.99 16.85L104.09 16.85L104.09 12.14L108.37 12.14L108.37 16.85L111.47 16.85L111.47 4.91L108.37 4.91L108.37 9.36Z" fill="#EF3124" fill-opacity="1.000000" fill-rule="nonzero"/>
		<mask id="mask264_2243" mask-type="alpha" maskUnits="userSpaceOnUse" x="0.000488" y="0.000000" width="125.526367" height="24.869141">
			<path id="Vector" d="M0 0L125.52 0L125.52 24.86L0 24.86L0 0Z" fill="#000000" fill-opacity="1.000000" fill-rule="evenodd"/>
		</mask>
		<g mask="url(#mask264_2243)">
			<path id="Vector" d="M18.4 11.38C18.33 13.61 18.03 14.05 16.76 14.05L16.76 16.85L17.24 16.85C20.4 16.85 21.17 15.24 21.28 11.66L21.41 7.69L24.38 7.69L24.38 16.85L27.48 16.85L27.48 4.91L18.61 4.91L18.4 11.38Z" fill="#EF3124" fill-opacity="1.000000" fill-rule="nonzero"/>
			<path id="Vector" d="M35.19 8.54L32.95 8.54L32.95 4.91L29.85 4.91L29.85 16.85L35.23 16.85C38.61 16.85 39.81 14.69 39.81 12.65C39.81 10.02 38.13 8.53 35.19 8.53L35.19 8.54ZM34.95 14.22L32.95 14.22L32.95 11.18L34.95 11.18C36.03 11.18 36.67 11.65 36.67 12.65C36.67 13.73 36.05 14.22 34.95 14.22Z" fill="#EF3124" fill-opacity="1.000000" fill-rule="nonzero"/>
			<path id="Vector" d="M49.91 4.63L49.91 0.2L46.81 0.2L46.81 4.63C43.26 4.93 40.87 7.41 40.87 10.87C40.87 14.33 43.26 16.83 46.81 17.13L46.81 21.63L49.91 21.63L49.91 17.13C53.46 16.86 55.85 14.35 55.85 10.87C55.85 7.39 53.46 4.91 49.91 4.63ZM46.81 14.25C45.09 14.01 44.01 12.74 44.01 10.87C44.01 9 45.09 7.73 46.81 7.5L46.81 14.25L46.81 14.25ZM49.91 14.25L49.91 7.5C51.63 7.73 52.71 9 52.71 10.87C52.71 12.74 51.63 14.01 49.91 14.25Z" fill="#EF3124" fill-opacity="1.000000" fill-rule="nonzero"/>
			<path id="Vector" d="M67.47 13.18L67.47 9.17C67.47 6.25 65.58 4.4 62.39 4.4C59.21 4.4 57.36 6.35 57.21 8.39L60.35 8.39C60.46 7.94 60.93 7.18 62.39 7.18C63.6 7.18 64.37 7.73 64.37 9.17L61.29 9.17C58.54 9.17 56.9 10.6 56.9 12.97C56.9 15.35 58.69 17.15 61.27 17.15C63.16 17.15 64.21 16.27 64.67 15.6C65.08 16.41 65.99 16.86 67.17 16.86L68.25 16.86L68.25 14.1C67.69 14.1 67.47 13.84 67.47 13.18L67.47 13.18ZM64.37 12.4C64.37 13.78 63.38 14.56 62.09 14.56C60.97 14.56 60.09 14.16 60.09 12.97C60.09 11.78 61.06 11.62 61.9 11.62L64.37 11.62L64.37 12.4Z" fill="#EF3124" fill-opacity="1.000000" fill-rule="nonzero"/>
			<path id="Vector" d="M80.75 6.6L77.29 6.6L77.29 3.23L85.32 3.23L85.32 0.2L74.04 0.2L74.04 16.85L80.76 16.85C84.48 16.85 86.61 15.03 86.61 11.68C86.61 8.52 84.48 6.6 80.76 6.6L80.75 6.6ZM80.61 13.84L77.29 13.84L77.29 9.51L80.61 9.51C82.33 9.51 83.3 10.3 83.3 11.68C83.3 13.06 82.33 13.84 80.61 13.84Z" fill="#EF3124" fill-opacity="1.000000" fill-rule="nonzero"/>
			<path id="Vector" d="M98.47 13.18L98.47 9.17C98.47 6.25 96.58 4.4 93.39 4.4C90.2 4.4 88.35 6.35 88.2 8.39L91.34 8.39C91.45 7.94 91.93 7.18 93.39 7.18C94.6 7.18 95.37 7.73 95.37 9.17L92.29 9.17C89.54 9.17 87.9 10.6 87.9 12.97C87.9 15.35 89.69 17.15 92.27 17.15C94.16 17.15 95.21 16.27 95.67 15.6C96.08 16.41 96.98 16.86 98.17 16.86L99.24 16.86L99.24 14.1C98.68 14.1 98.47 13.84 98.47 13.18L98.47 13.18ZM95.37 12.4C95.37 13.78 94.38 14.56 93.09 14.56C91.97 14.56 91.08 14.16 91.08 12.97C91.08 11.78 92.05 11.62 92.89 11.62L95.37 11.62L95.37 12.4Z" fill="#EF3124" fill-opacity="1.000000" fill-rule="nonzero"/>
			<path id="Vector" d="M0 21.47L16.57 21.47L16.57 24.87L0 24.87L0 21.47Z" fill="#EF3124" fill-opacity="1.000000" fill-rule="evenodd"/>
			<path id="Vector" d="M11.3 2.48C10.82 1.09 10.28 0 8.41 0C6.55 0 5.97 1.09 5.47 2.48L0.34 16.85L3.74 16.85L4.93 13.44L11.47 13.44L12.57 16.85L16.18 16.85L11.3 2.48ZM5.92 10.55L8.24 3.74L8.33 3.74L10.52 10.55L5.91 10.55L5.92 10.55Z" fill="#EF3124" fill-opacity="1.000000" fill-rule="nonzero"/>
		</g>
	</g>
</svg>
