<svg width="98.165039" height="30.828125" viewBox="0 0 98.165 30.8281" fill="none" xmlns="http://www.w3.org/2000/svg" xmlns:xlink="http://www.w3.org/1999/xlink">
	<desc>
			Created with Pixso.
	</desc>
	<defs>
		<clipPath id="clip264_2301">
			<rect id="psbank-1669939793-logotic-brand" rx="0.000000" width="97.572716" height="30.236513" transform="translate(0.296053 0.296053)" fill="white" fill-opacity="0"/>
		</clipPath>
	</defs>
	<rect id="psbank-1669939793-logotic-brand" rx="0.000000" width="97.572716" height="30.236513" transform="translate(0.296053 0.296053)" fill="#FFFFFF" fill-opacity="0"/>
	<g clip-path="url(#clip264_2301)">
		<path id="Vector" d="M20.25 0.55L10.32 10.44L20.25 10.44L20.25 30.23L30.16 20.36L30.16 0.55L20.25 0.55Z" fill="#EA5616" fill-opacity="1.000000" fill-rule="nonzero"/>
		<path id="Vector" d="M10.32 30.23L20.25 20.34L10.32 20.34L10.32 0.55L0.4 10.41L0.4 30.23L10.32 30.23ZM40.09 25.28L45.3 25.28L45.3 9.94L53.2 9.94L53.2 25.28L58.41 25.28L58.41 5.5L40.09 5.5L40.09 25.28ZM90.69 12.9L86.24 12.9L86.24 9.94L96.15 9.94L96.15 5.49L81.02 5.49L81.02 25.28L90.93 25.28C94.91 25.28 97.88 23.3 97.88 19.09C97.88 14.89 94.91 12.9 90.68 12.9L90.69 12.9ZM90.19 21.06L86.23 21.06L86.23 17.12L90.19 17.12C91.41 17.12 92.62 17.61 92.62 19.09C92.62 20.58 91.38 21.06 90.19 21.06ZM71.19 21.06C67.71 21.06 65.75 18.52 65.75 15.39C65.75 12.87 67.17 9.72 71.08 9.72C71.96 9.73 72.82 9.92 73.61 10.3C74.4 10.68 75.1 11.22 75.65 11.9L78.82 8.74C77.85 7.57 76.62 6.64 75.24 5.99C73.86 5.35 72.36 5.02 70.84 5.02C69.46 4.98 68.1 5.23 66.83 5.74C65.55 6.25 64.4 7.01 63.43 7.98C62.46 8.95 61.71 10.11 61.2 11.38C60.7 12.66 60.47 14.02 60.51 15.39C60.5 17.57 61.17 19.7 62.45 21.48C63.72 23.25 65.53 24.57 67.61 25.26C69.68 25.94 71.92 25.95 74.01 25.28C76.09 24.61 77.91 23.3 79.2 21.54L76.01 18.36C75.51 19.2 74.79 19.89 73.93 20.37C73.08 20.84 72.12 21.09 71.14 21.08L71.19 21.06Z" fill="#2C2D84" fill-opacity="1.000000" fill-rule="nonzero"/>
	</g>
</svg>
