<svg width="120.307617" height="28.082031" viewBox="0 0 120.308 28.082" fill="none" xmlns="http://www.w3.org/2000/svg" xmlns:xlink="http://www.w3.org/1999/xlink">
	<desc>
			Created with Pixso.
	</desc>
	<defs/>
	<path id="Vector" d="M67.74 0L52.68 1.98L52.68 6.46L67.74 5.11L67.74 0Z" fill="#E40038" fill-opacity="1.000000" fill-rule="nonzero"/>
	<path id="Vector" d="M21.71 16.34C21.71 19.06 22.51 20 25.1 20C27.7 20 28.49 19.05 28.49 16.34C28.49 13.62 27.71 12.67 25.1 12.67C22.5 12.67 21.71 13.6 21.71 16.34ZM17.15 16.3C17.15 11.31 19.91 9.02 25.1 9.02C30.3 9.02 33.07 11.31 33.07 16.3C33.07 21.29 30.33 23.65 25.1 23.65C19.88 23.65 17.15 21.29 17.15 16.3Z" fill="#00234D" fill-opacity="1.000000" fill-rule="nonzero"/>
	<path id="Vector" d="M64.89 10.28L52.68 1.98L52.68 6.46L56.49 9.05L57.23 9.49C55.87 9.51 55.21 9.79 54.55 10.19C52.67 11.33 51.7 13.34 51.7 16.3C51.7 21.29 54.43 23.65 59.65 23.65C64.86 23.65 67.61 21.29 67.61 16.3C67.61 13.41 66.68 11.43 64.89 10.28ZM59.65 20C57.06 20 56.25 19.05 56.25 16.33C56.25 13.62 57.06 12.67 59.65 12.67C62.24 12.67 63.03 13.6 63.03 16.33C63.03 19.07 62.25 20 59.65 20Z" fill="#00234D" fill-opacity="1.000000" fill-rule="nonzero"/>
	<path id="Vector" d="M9.32 9C6.85 9 4.86 10.53 4.36 11.16L4.36 9.33L0 9.33L0 28.08L4.33 28.08L4.33 21.41C4.84 22.06 6.83 23.56 9.3 23.56C13.41 23.56 15.67 21.31 15.67 16.27C15.67 11.23 13.41 9 9.32 9ZM7.76 19.92C5.18 19.92 4.36 18.98 4.36 16.26C4.36 13.54 5.17 12.59 7.76 12.59C10.35 12.59 11.14 13.52 11.14 16.26C11.14 18.99 10.36 19.92 7.76 19.92L7.76 19.92Z" fill="#00234D" fill-opacity="1.000000" fill-rule="nonzero"/>
	<path id="Vector" d="M97.46 9.34L97.46 14.43L91.7 14.43L91.7 9.34L87.34 9.34L87.34 23.11L91.7 23.11L91.7 17.95L97.46 17.95L97.46 23.11L101.83 23.11L101.83 9.34L97.46 9.34Z" fill="#00234D" fill-opacity="1.000000" fill-rule="nonzero"/>
	<path id="Vector" d="M69.11 16.27C69.11 21.31 71.37 23.56 75.48 23.56C77.95 23.56 79.94 22.06 80.45 21.41L80.45 23.11L84.79 23.11L84.79 9.32L80.42 9.32L80.42 11.16C79.92 10.53 77.92 9 75.46 9C71.37 9 69.11 11.24 69.11 16.27ZM73.63 16.25C73.63 13.51 74.41 12.58 77.02 12.58C79.62 12.58 80.42 13.52 80.42 16.25C80.42 18.98 79.61 19.91 77.02 19.91C74.43 19.91 73.63 18.97 73.63 16.25L73.63 16.25Z" fill="#00234D" fill-opacity="1.000000" fill-rule="nonzero"/>
	<path id="Vector" d="M45.73 18.02C45.39 19.46 44.48 20 42.5 20C39.92 20 39.11 19.05 39.11 16.33C39.11 13.62 39.92 12.67 42.5 12.67C44.48 12.67 45.39 13.2 45.74 14.65L50.29 14.31C49.61 10.7 46.94 9.03 42.5 9.03C37.31 9.03 34.56 11.31 34.56 16.3C34.56 21.29 37.29 23.65 42.5 23.65C46.94 23.65 49.58 21.94 50.27 18.37L45.73 18.02Z" fill="#00234D" fill-opacity="1.000000" fill-rule="nonzero"/>
	<path id="Vector" d="M120.3 23.11L113.39 15.88L119.93 9.34L114.53 9.34L108.67 15.32L108.67 9.34L104.39 9.34L104.39 23.11L108.67 23.11L108.67 18.29L108.67 17.1L108.67 16.77L114.69 23.11L120.3 23.11Z" fill="#00234D" fill-opacity="1.000000" fill-rule="nonzero"/>
</svg>
