<svg width="162.829102" height="24.869141" viewBox="0 0 162.829 24.8691" fill="none" xmlns="http://www.w3.org/2000/svg" xmlns:xlink="http://www.w3.org/1999/xlink">
	<desc>
			Created with Pixso.
	</desc>
	<defs>
		<linearGradient x1="4.243925" y1="20.867985" x2="1.107568" y2="11.793377" id="paint_linear_264_2231_0" gradientUnits="userSpaceOnUse">
			<stop offset="0.144000" stop-color="#F2E913"/>
			<stop offset="0.304000" stop-color="#E7E518"/>
			<stop offset="0.582000" stop-color="#CADB26"/>
			<stop offset="0.891000" stop-color="#A3CD39"/>
		</linearGradient>
		<linearGradient x1="4.471675" y1="4.174389" x2="12.561457" y2="1.087884" id="paint_linear_264_2232_0" gradientUnits="userSpaceOnUse">
			<stop offset="0.059000" stop-color="#0FA8E0"/>
			<stop offset="0.538000" stop-color="#0099F9"/>
			<stop offset="0.923000" stop-color="#0291EB"/>
		</linearGradient>
		<linearGradient x1="11.626883" y1="23.116947" x2="20.776623" y2="21.047245" id="paint_linear_264_2233_0" gradientUnits="userSpaceOnUse">
			<stop offset="0.123000" stop-color="#A3CD39"/>
			<stop offset="0.285000" stop-color="#86C339"/>
			<stop offset="0.869000" stop-color="#21A038"/>
		</linearGradient>
		<linearGradient x1="11.844509" y1="0.966758" x2="19.666277" y2="3.383006" id="paint_linear_264_2234_0" gradientUnits="userSpaceOnUse">
			<stop offset="0.057000" stop-color="#0291EB"/>
			<stop offset="0.790000" stop-color="#0C8ACB"/>
		</linearGradient>
		<linearGradient x1="3.942479" y1="20.417982" x2="12.456423" y2="23.602032" id="paint_linear_264_2236_0" gradientUnits="userSpaceOnUse">
			<stop offset="0.132000" stop-color="#F2E913"/>
			<stop offset="0.298000" stop-color="#EBE716"/>
			<stop offset="0.531000" stop-color="#D9E01F"/>
			<stop offset="0.802000" stop-color="#BBD62D"/>
			<stop offset="0.983000" stop-color="#A3CD39"/>
		</linearGradient>
		<linearGradient x1="1.076555" y1="12.791205" x2="4.489513" y2="3.904900" id="paint_linear_264_2237_0" gradientUnits="userSpaceOnUse">
			<stop offset="0.070000" stop-color="#A3CD39"/>
			<stop offset="0.260000" stop-color="#81C55F"/>
			<stop offset="0.922000" stop-color="#0FA8E0"/>
		</linearGradient>
	</defs>
	<mask id="mask264_2227" mask-type="alpha" maskUnits="userSpaceOnUse" x="0.000000" y="0.000000" width="162.829102" height="24.869141">
		<path id="Vector" d="M0 0L162.82 0L162.82 24.86L0 24.86L0 0Z" fill="#000000" fill-opacity="1.000000" fill-rule="evenodd"/>
	</mask>
	<g mask="url(#mask264_2227)">
		<path id="Vector" d="M72.51 7.44L75.89 4.94L64.57 4.94L64.57 19.91L75.89 19.91L75.89 17.41L67.8 17.41L67.8 13.59L74.72 13.59L74.72 11.09L67.8 11.09L67.8 7.44L72.51 7.44ZM56.01 10.77L52.08 10.77L52.08 7.44L58.36 7.44L61.75 4.94L48.85 4.94L48.85 19.91L55.59 19.91C59.37 19.91 61.55 18.2 61.55 15.21C61.55 12.34 59.59 10.77 56.01 10.77ZM55.47 17.41L52.08 17.41L52.08 13.27L55.47 13.27C57.53 13.27 58.48 13.96 58.48 15.36C58.48 16.75 57.45 17.41 55.47 17.41ZM85.07 4.94L78.91 4.94L78.91 19.91L82.15 19.91L82.15 15.67L85.09 15.67C89.01 15.67 91.47 13.62 91.47 10.31C91.47 7 89.02 4.94 85.07 4.94ZM84.99 13.17L82.12 13.17L82.12 7.44L84.99 7.44C87.08 7.44 88.21 8.47 88.21 10.31C88.21 12.15 87.08 13.17 84.99 13.17ZM43.3 16.68C42.45 17.15 41.49 17.39 40.51 17.39C37.59 17.39 35.48 15.31 35.48 12.44C35.48 9.58 37.59 7.49 40.51 7.49C41.56 7.47 42.6 7.8 43.45 8.42L45.78 6.71L45.63 6.56C44.29 5.36 42.47 4.75 40.41 4.75C38.18 4.75 36.14 5.51 34.67 6.88C33.94 7.58 33.36 8.43 32.97 9.37C32.58 10.32 32.39 11.33 32.41 12.34C32.4 13.37 32.59 14.4 32.98 15.35C33.37 16.31 33.94 17.17 34.67 17.91C36.22 19.35 38.28 20.16 40.39 20.11C42.71 20.11 44.75 19.3 46.12 17.83L44.04 16.29L43.3 16.68ZM130.39 4.97L130.39 19.94L133.62 19.94L133.62 13.81L140.51 13.81L140.51 19.94L143.75 19.94L143.75 4.97L140.51 4.97L140.51 11.12L133.62 11.12L133.62 4.97L130.39 4.97ZM124.82 19.94L128.23 19.94L121.9 4.97L118.61 4.97L112.17 19.94L115.43 19.94L116.73 16.92L123.59 16.92L124.82 19.94ZM117.71 14.42L120.21 8.42L122.56 14.42L117.71 14.42ZM151.01 13.89L153.02 13.89L157.97 19.91L162.14 19.91L155.52 12.17L161.31 4.94L157.61 4.94L152.8 11.36L151.01 11.36L151.01 4.94L147.77 4.94L147.77 19.91L151.01 19.91L151.01 13.89ZM101.47 10.8L101.47 7.47L109.93 7.47L109.93 4.97L98.24 4.97L98.24 19.94L104.98 19.94C108.76 19.94 110.94 18.22 110.94 15.23C110.94 12.37 108.98 10.8 105.4 10.8L101.47 10.8ZM101.47 17.44L101.47 13.3L104.86 13.3C106.92 13.3 107.87 13.98 107.87 15.38C107.87 16.78 106.87 17.46 104.86 17.46L101.47 17.46L101.47 17.44L101.47 17.44ZM22.29 4.84C22.88 5.6 23.37 6.44 23.78 7.32L12.45 15.67L7.7 12.68L7.7 9.11L12.43 12.07L22.29 4.84Z" fill="#21A038" fill-opacity="1.000000" fill-rule="nonzero"/>
		<path id="Vector" d="M2.86 12.44C2.86 12.27 2.86 12.12 2.89 11.95L0.02 11.8C0.02 12 0 12.22 0 12.42C0 15.85 1.39 18.96 3.65 21.21L5.68 19.18C4.79 18.3 4.08 17.25 3.59 16.09C3.11 14.94 2.86 13.69 2.86 12.44Z" fill="url(#paint_linear_264_2231_0)" fill-opacity="1.000000" fill-rule="nonzero"/>
		<path id="Vector" d="M12.43 2.88C12.6 2.88 12.75 2.88 12.92 2.91L13.07 0.04C12.87 0.04 12.65 0.02 12.45 0.02C9.02 0.02 5.9 1.41 3.65 3.67L5.68 5.7C6.57 4.81 7.62 4.1 8.77 3.62C9.93 3.13 11.17 2.88 12.43 2.88Z" fill="url(#paint_linear_264_2232_0)" fill-opacity="1.000000" fill-rule="nonzero"/>
		<path id="Vector" d="M12.43 22C12.26 22 12.11 22 11.94 21.97L11.79 24.84C11.99 24.84 12.21 24.86 12.4 24.86C15.84 24.86 18.95 23.47 21.21 21.21L19.17 19.18C17.46 20.94 15.08 22 12.43 22Z" fill="url(#paint_linear_264_2233_0)" fill-opacity="1.000000" fill-rule="nonzero"/>
		<path id="Vector" d="M17.82 4.55L20.25 2.76C18.04 0.97 15.28 0 12.43 0L12.43 2.86C14.44 2.89 16.3 3.5 17.82 4.55Z" fill="url(#paint_linear_264_2234_0)" fill-opacity="1.000000" fill-rule="nonzero"/>
		<path id="Vector" d="M24.89 12.44C24.89 11.68 24.81 10.94 24.69 10.21L22.02 12.19L22.02 12.44C22.02 13.78 21.74 15.1 21.19 16.32C20.65 17.54 19.85 18.63 18.85 19.52L20.79 21.65C22.08 20.49 23.11 19.07 23.82 17.48C24.52 15.89 24.89 14.17 24.89 12.44L24.89 12.44Z" fill="#21A038" fill-opacity="1.000000" fill-rule="nonzero"/>
		<path id="Vector" d="M12.43 22C11.09 22 9.77 21.72 8.55 21.17C7.33 20.63 6.23 19.83 5.34 18.83L3.21 20.77C4.37 22.06 5.79 23.09 7.38 23.8C8.97 24.5 10.69 24.87 12.43 24.86L12.43 22Z" fill="url(#paint_linear_264_2236_0)" fill-opacity="1.000000" fill-rule="nonzero"/>
		<path id="Vector" d="M6.03 5.36L4.09 3.23C2.8 4.39 1.77 5.81 1.06 7.4C0.35 8.99 -0.01 10.7 0 12.44L2.86 12.44C2.87 11.1 3.15 9.78 3.69 8.56C4.24 7.34 5.03 6.25 6.03 5.36Z" fill="url(#paint_linear_264_2237_0)" fill-opacity="1.000000" fill-rule="nonzero"/>
	</g>
</svg>
