<?xml version="1.0" encoding="utf-8"?><svg xmlns="http://www.w3.org/2000/svg" xmlns:xlink="http://www.w3.org/1999/xlink"><symbol viewBox="0 0 12.8571 21.4286" fill="none" id="arrow-down_icon" xmlns="http://www.w3.org/2000/svg"><defs/><path id="aIcon" d="M0.32 14.13C-0.11 14.55 -0.11 15.23 0.3 15.65L5.66 21.1C5.86 21.31 6.14 21.42 6.42 21.42C6.71 21.42 6.99 21.31 7.19 21.1L12.55 15.65C12.96 15.23 12.95 14.55 12.53 14.13C12.11 13.72 11.43 13.72 11.02 14.15L7.5 17.73L7.5 1.07C7.5 0.47 7.02 0 6.42 0C5.83 0 5.35 0.47 5.35 1.07L5.35 17.73L1.83 14.15C1.42 13.72 0.74 13.72 0.32 14.13Z" fill="currentColor" fill-opacity="1.000000" fill-rule="evenodd"/></symbol><symbol viewBox="0 0 30 30" fill="none" id="close_icon" xmlns="http://www.w3.org/2000/svg"><defs/><path id="bIcon" d="M29.51 2.84C30.16 2.19 30.16 1.13 29.51 0.48C28.86 -0.17 27.8 -0.17 27.15 0.48L15 12.64L2.84 0.48C2.19 -0.17 1.13 -0.17 0.48 0.48C-0.17 1.13 -0.17 2.19 0.48 2.84L12.64 15L0.48 27.15C-0.17 27.8 -0.17 28.86 0.48 29.51C1.13 30.16 2.19 30.16 2.84 29.51L15 17.35L27.15 29.51C27.8 30.16 28.86 30.16 29.51 29.51C30.16 28.86 30.16 27.8 29.51 27.15L17.35 15L29.51 2.84Z" fill="currentColor" fill-opacity="1.000000" fill-rule="evenodd"/></symbol><symbol viewBox="0 0 48 48" fill="none" id="eye_icon" xmlns="http://www.w3.org/2000/svg"><defs><clipPath id="cclip7_1027"><rect id="cicons/eye" rx="0.000000" width="47.000000" height="47.000000" transform="translate(0.500000 0.500000)" fill="white" fill-opacity="0"/></clipPath></defs><rect id="cicons/eye" rx="0.000000" width="47.000000" height="47.000000" transform="translate(0.500000 0.500000)" fill="transparent" fill-opacity="1.000000"/><g clip-path="url(#cclip7_1027)"><path id="cIcon" d="M8.71 23.16C8.52 23.48 8.36 23.76 8.23 24C8.36 24.23 8.52 24.51 8.71 24.83C9.33 25.86 10.29 27.24 11.61 28.61C14.25 31.34 18.26 34 23.99 34C29.73 34 33.74 31.34 36.38 28.61C37.7 27.24 38.66 25.86 39.28 24.83C39.47 24.51 39.63 24.23 39.76 24C39.63 23.76 39.47 23.48 39.28 23.16C38.66 22.13 37.7 20.75 36.38 19.38C33.74 16.65 29.73 14 23.99 14C18.26 14 14.25 16.65 11.61 19.38C10.29 20.75 9.33 22.13 8.71 23.16ZM43.83 24.79C43.83 24.78 43.83 24.78 41.99 24L43.83 24.79C44.05 24.28 44.05 23.71 43.83 23.21L41.99 24C43.83 23.21 43.83 23.21 43.83 23.21L43.83 23.2L43.83 23.2L43.82 23.19L43.81 23.15C43.79 23.11 43.77 23.07 43.75 23.02C43.7 22.91 43.63 22.76 43.53 22.58C43.35 22.21 43.07 21.69 42.7 21.08C41.96 19.86 40.83 18.24 39.26 16.61C36.1 13.34 31.11 10 23.99 10C16.87 10 11.89 13.34 8.73 16.61C7.16 18.24 6.03 19.86 5.29 21.08C4.92 21.69 4.64 22.21 4.46 22.58C4.36 22.76 4.29 22.91 4.24 23.02C4.22 23.07 4.2 23.11 4.18 23.15L4.17 23.19L4.16 23.2L4.16 23.2L4.16 23.21C4.16 23.21 4.16 23.21 5.99 24L4.16 23.21C3.94 23.71 3.94 24.28 4.16 24.78L5.99 24C4.16 24.78 4.16 24.78 4.16 24.78L4.16 24.79L4.16 24.79L4.17 24.8L4.18 24.84C4.2 24.88 4.22 24.92 4.24 24.97C4.29 25.08 4.36 25.23 4.46 25.41C4.64 25.78 4.92 26.3 5.29 26.91C6.03 28.13 7.16 29.75 8.73 31.38C11.89 34.65 16.87 38 23.99 38C31.11 38 36.1 34.65 39.26 31.38C40.83 29.75 41.96 28.13 42.7 26.91C43.07 26.3 43.35 25.78 43.53 25.41C43.63 25.23 43.7 25.08 43.75 24.97C43.77 24.92 43.79 24.88 43.81 24.84L43.82 24.8L43.83 24.79L43.83 24.79L43.83 24.79ZM23.99 28C21.79 28 19.99 26.2 19.99 24C19.99 21.79 21.79 20 23.99 20C26.2 20 27.99 21.79 27.99 24C27.99 26.2 26.2 28 23.99 28ZM15.99 24C15.99 19.58 19.58 16 23.99 16C28.41 16 31.99 19.58 31.99 24C31.99 28.41 28.41 32 23.99 32C19.58 32 15.99 28.41 15.99 24Z" fill="currentColor" fill-opacity="1.000000" fill-rule="evenodd"/></g></symbol><symbol viewBox="0 0 48 48" fill="none" id="flower_icon" xmlns="http://www.w3.org/2000/svg"><defs><clipPath id="dclip41_379"><rect id="dIcons_tabbar" rx="0.000000" width="47.000000" height="47.000000" transform="translate(0.500000 0.500000)" fill="white" fill-opacity="0"/></clipPath></defs><g clip-path="url(#dclip41_379)"><path id="dIcon" d="M15.1 4.33C14.49 3.92 13.7 3.88 13.05 4.23C12.4 4.58 12 5.26 12 6L12 15C12 21.62 17.37 27 24 27C30.62 27 36 21.62 36 15L36 6C36 5.26 35.59 4.58 34.94 4.23C34.29 3.88 33.5 3.92 32.89 4.33L28.25 7.42L25.41 4.58C24.63 3.8 23.36 3.8 22.58 4.58L19.74 7.42L15.1 4.33ZM16 15L16 9.73L18.89 11.66C19.68 12.19 20.74 12.08 21.41 11.41L24 8.82L26.58 11.41C27.25 12.08 28.31 12.19 29.1 11.66L32 9.73L32 15C32 19.41 28.41 23 24 23C19.58 23 16 19.41 16 15ZM22.25 39.98C17.21 39.7 13.09 35.99 12.18 31.14C17.95 31.93 21.32 35.81 22.03 39.39C22.08 39.6 22.15 39.8 22.25 39.98ZM35.81 31.14C34.9 35.99 30.78 39.7 25.74 39.98C25.84 39.8 25.91 39.6 25.96 39.39C26.67 35.81 30.04 31.93 35.81 31.14ZM10.14 27C8.97 26.99 8 27.93 8 29.12C8 37.34 14.65 44 22.87 44L24 44L25.12 44C33.34 44 40 37.34 40 29.12C40 27.93 39.02 26.99 37.85 27C31.43 27.04 26.61 30.01 24 33.93C21.38 30.01 16.56 27.04 10.14 27Z" fill="currentColor" fill-opacity="1.000000" fill-rule="evenodd"/></g></symbol><symbol viewBox="0 0 42.667 42.666" fill="none" id="heart_icon" xmlns="http://www.w3.org/2000/svg"><defs><clipPath id="eclip264_2329"><rect id="eicons/Abstract/oval-love" rx="0.000000" width="41.333336" height="41.333336" transform="translate(0.666667 0.666667)" fill="white" fill-opacity="0"/></clipPath></defs><g clip-path="url(#eclip264_2329)"><path id="eVector" d="M25.11 36.73C19.59 39.91 11.13 35.61 6.22 27.11C1.31 18.6 1.81 9.12 7.33 5.93C12.86 2.74 21.32 7.05 26.23 15.55C31.14 24.05 30.64 33.53 25.11 36.73Z" stroke="currentColor" stroke-opacity="1.000000" stroke-width="2.666667" stroke-linejoin="round"/><path id="eVector" d="M17.34 36.73C22.87 39.91 31.33 35.61 36.24 27.11C41.15 18.6 40.65 9.12 35.12 5.93C29.59 2.74 21.13 7.05 16.23 15.55C11.32 24.05 11.82 33.53 17.34 36.73Z" stroke="currentColor" stroke-opacity="1.000000" stroke-width="2.666667" stroke-linejoin="round"/><path id="eVector" d="M21.11 9.19C23.01 10.89 24.78 13.03 26.23 15.55C31.14 24.05 30.64 33.53 25.11 36.73C23.96 37.39 22.68 37.73 21.33 37.77" stroke="currentColor" stroke-opacity="1.000000" stroke-width="2.666667" stroke-linejoin="round" stroke-linecap="round"/></g></symbol><symbol viewBox="0 0 48 48" fill="none" id="house_icon" xmlns="http://www.w3.org/2000/svg"><defs><clipPath id="fclip41_374"><rect id="fBusiness/Business 13 - 24px" rx="0.000000" width="47.000000" height="47.000000" transform="translate(0.500000 0.500000)" fill="currentColor" fill-opacity="0"/></clipPath></defs><g clip-path="url(#fclip41_374)"><path id="fIcon" d="M25.77 7.8C25.77 7.2 25.49 6.65 25.01 6.32C24.53 5.98 23.92 5.9 23.37 6.11L9.15 11.51C8.45 11.77 8 12.44 8 13.2L8 40.2C8 41.19 8.79 42 9.77 42C10.75 42 11.55 41.19 11.55 40.2L11.55 14.44L22.22 10.39L22.22 24L22.22 40.2C22.22 41.19 23.01 42 24 42C24.98 42 25.77 41.19 25.77 40.2L25.77 26.3L36.44 29L36.44 40.2C36.44 41.19 37.24 42 38.22 42C39.2 42 40 41.19 40 40.2L40 27.6C40 26.77 39.44 26.05 38.65 25.85L25.77 22.59L25.77 7.8ZM16 15C15.01 15 14.22 15.8 14.22 16.79L14.22 18.6C14.22 19.59 15.01 20.39 16 20.39L17.77 20.39C18.75 20.39 19.55 19.59 19.55 18.6L19.55 16.79C19.55 15.8 18.75 15 17.77 15L16 15ZM14.22 25.8C14.22 24.8 15.01 24 16 24L17.77 24C18.75 24 19.55 24.8 19.55 25.8L19.55 27.6C19.55 28.59 18.75 29.39 17.77 29.39L16 29.39C15.01 29.39 14.22 28.59 14.22 27.6L14.22 25.8ZM16 33C15.01 33 14.22 33.8 14.22 34.8L14.22 36.6C14.22 37.59 15.01 38.39 16 38.39L17.77 38.39C18.75 38.39 19.55 37.59 19.55 36.6L19.55 34.8C19.55 33.8 18.75 33 17.77 33L16 33ZM30.22 31.2C29.24 31.2 28.44 32 28.44 33L28.44 34.8C28.44 35.79 29.24 36.6 30.22 36.6L32 36.6C32.98 36.6 33.77 35.79 33.77 34.8L33.77 33C33.77 32 32.98 31.2 32 31.2L30.22 31.2Z" fill="currentColor" fill-opacity="1.000000" fill-rule="evenodd"/></g></symbol><symbol viewBox="0 0 48 48" fill="none" id="icons_hospital" xmlns="http://www.w3.org/2000/svg"><desc>Created with Pixso.</desc><defs><clipPath id="gclip2_1366"><rect id="gBusiness/Business 7 - 24px" rx="0.000000" width="29.000000" height="29.000000" transform="translate(9.500000 9.500000)" fill="white" fill-opacity="0"/></clipPath></defs><rect id="gicons/hospital" rx="0.000000" width="47.000000" height="47.000000" transform="translate(0.500000 0.500000)" fill="#FCFEFF" fill-opacity="1.000000"/><g clip-path="url(#gclip2_1366)"><path id="gIcon" d="M19 20.25L17.75 20.25L17.75 32.75L30.25 32.75L30.25 20.25L29 20.25L26.5 20.25L21.5 20.25L19 20.25ZM32.75 20.25L32.75 32.75C33.44 32.75 34 32.19 34 31.5L34 21.5C34 20.8 33.44 20.25 32.75 20.25ZM15.25 20.25L15.25 32.75C14.55 32.75 14 32.19 14 31.5L14 21.5C14 20.8 14.55 20.25 15.25 20.25ZM29 17.75L32.75 17.75C34.82 17.75 36.5 19.42 36.5 21.5L36.5 31.5C36.5 33.57 34.82 35.25 32.75 35.25L15.25 35.25C13.17 35.25 11.5 33.57 11.5 31.5L11.5 21.5C11.5 19.42 13.17 17.75 15.25 17.75L19 17.75L19 16.5C19 14.42 20.67 12.75 22.75 12.75L25.25 12.75C27.32 12.75 29 14.42 29 16.5L29 17.75ZM26.5 17.75L25.25 17.75L24 17.75L22.75 17.75L21.5 17.75L21.5 16.5C21.5 15.8 22.05 15.25 22.74 15.25L22.75 15.25L25.25 15.25L25.25 15.25C25.94 15.25 26.5 15.8 26.5 16.5L26.5 17.75ZM19.62 26.5C19.62 25.8 20.18 25.25 20.87 25.25L22.75 25.25L22.75 23.37C22.75 22.68 23.3 22.12 24 22.12C24.69 22.12 25.25 22.68 25.25 23.37L25.25 25.25L27.12 25.25C27.81 25.25 28.37 25.8 28.37 26.5C28.37 27.19 27.81 27.75 27.12 27.75L25.25 27.75L25.25 29.62C25.25 30.31 24.69 30.87 24 30.87C23.3 30.87 22.75 30.31 22.75 29.62L22.75 27.75L20.87 27.75C20.18 27.75 19.62 27.19 19.62 26.5Z" fill="#EB8F8F" fill-opacity="1.000000" fill-rule="evenodd"/></g></symbol><symbol viewBox="0 0 48 48" fill="none" id="icons_kidsgarden" xmlns="http://www.w3.org/2000/svg"><desc>Created with Pixso.</desc><defs/><rect id="hicons/kidsgarden" rx="0.000000" width="47.000000" height="47.000000" transform="translate(0.500000 0.500000)" fill="#FCFEFF" fill-opacity="1.000000"/><path id="hVector" d="M22.33 13.79C22.57 13.18 22.27 12.5 21.66 12.26C21.06 12.02 20.37 12.32 20.14 12.93L22.33 13.79ZM26.35 22.03C27 22.03 27.53 21.5 27.53 20.85C27.53 20.2 27 19.68 26.35 19.68L26.35 22.03ZM21.23 13.36L20.94 12.22L20.94 12.22L21.23 13.36ZM34.61 21.16L33.47 21.46C33.57 21.81 33.82 22.1 34.16 22.24C34.49 22.38 34.87 22.36 35.19 22.18L34.61 21.16ZM34.89 25.39L35.33 24.3C34.99 24.16 34.61 24.19 34.3 24.38C33.98 24.56 33.77 24.88 33.72 25.24L34.89 25.39ZM13.1 25.39L14.27 25.24C14.22 24.88 14.01 24.56 13.69 24.38C13.38 24.19 13 24.16 12.66 24.3L13.1 25.39ZM13.38 21.16L12.8 22.18C13.12 22.36 13.5 22.38 13.83 22.24C14.17 22.1 14.42 21.81 14.52 21.46L13.38 21.16ZM20.14 12.93C18.92 16.04 20.19 19.58 23.12 21.2L24.26 19.14C22.37 18.09 21.54 15.8 22.33 13.79L20.14 12.93ZM23.12 21.2C24.11 21.75 25.22 22.03 26.35 22.03L26.35 19.68C25.62 19.68 24.9 19.49 24.26 19.14L23.12 21.2ZM21.53 14.5C26.75 13.15 32.08 16.26 33.47 21.46L35.75 20.85C34.02 14.4 27.41 10.55 20.94 12.22L21.53 14.5ZM35.19 22.18C35.67 21.91 36.27 22.01 36.64 22.41L38.38 20.83C37.27 19.61 35.47 19.32 34.03 20.13L35.19 22.18ZM36.64 22.41C37.01 22.82 37.05 23.43 36.73 23.88L38.67 25.22C39.61 23.87 39.48 22.05 38.38 20.83L36.64 22.41ZM36.73 23.88C36.42 24.33 35.84 24.5 35.33 24.3L34.46 26.49C35.98 27.1 37.73 26.57 38.67 25.22L36.73 23.88ZM33.72 25.24C33.1 30.14 28.93 33.81 24 33.81L24 36.16C30.12 36.16 35.28 31.61 36.06 25.54L33.72 25.24ZM24 33.81C19.06 33.81 14.89 30.14 14.27 25.24L11.93 25.54C12.71 31.61 17.87 36.16 24 36.16L24 33.81ZM12.66 24.3C12.15 24.5 11.57 24.33 11.26 23.88L9.32 25.22C10.26 26.57 12.01 27.1 13.53 26.49L12.66 24.3ZM11.26 23.88C10.94 23.43 10.98 22.82 11.35 22.41L9.61 20.83C8.51 22.05 8.38 23.87 9.32 25.22L11.26 23.88ZM11.35 22.41C11.72 22.01 12.32 21.91 12.8 22.18L13.96 20.13C12.52 19.32 10.72 19.61 9.61 20.83L11.35 22.41ZM14.52 21.46C15.43 18.05 18.11 15.39 21.53 14.5L20.94 12.22C16.7 13.32 13.38 16.62 12.24 20.85L14.52 21.46Z" fill="#EBACF1" fill-opacity="1.000000" fill-rule="nonzero"/><path id="hVector" d="M19.29 24.78C18.86 24.78 18.51 24.43 18.51 23.99C18.51 23.56 18.86 23.21 19.29 23.21C19.72 23.21 20.08 23.56 20.08 23.99C20.08 24.43 19.72 24.78 19.29 24.78Z" fill="#EBACF1" fill-opacity="1.000000" fill-rule="nonzero"/><path id="hVector" d="M19.29 25.56C18.42 25.56 17.72 24.86 17.72 23.99C17.72 23.12 18.42 22.42 19.29 22.42C20.15 22.42 20.86 23.12 20.86 23.99C20.86 24.86 20.15 25.56 19.29 25.56Z" fill="#EBACF1" fill-opacity="1.000000" fill-rule="nonzero"/><path id="hVector" d="M28.71 24.78C28.27 24.78 27.92 24.43 27.92 23.99C27.92 23.56 28.27 23.21 28.71 23.21C29.14 23.21 29.49 23.56 29.49 23.99C29.49 24.43 29.14 24.78 28.71 24.78Z" fill="#EBACF1" fill-opacity="1.000000" fill-rule="nonzero"/><path id="hVector" d="M28.7 25.56C27.84 25.56 27.13 24.86 27.13 23.99C27.13 23.12 27.84 22.42 28.7 22.42C29.57 22.42 30.27 23.12 30.27 23.99C30.27 24.86 29.57 25.56 28.7 25.56Z" fill="#EBACF1" fill-opacity="1.000000" fill-rule="nonzero"/></symbol><symbol viewBox="0 0 48 48" fill="none" id="icons_school" xmlns="http://www.w3.org/2000/svg"><desc>Created with Pixso.</desc><defs/><rect id="iicons/school" rx="0.000000" width="47.000000" height="47.000000" transform="translate(0.500000 0.500000)" fill="#FCFEFF" fill-opacity="1.000000"/><path id="iVector" d="M35.07 20.92C35.23 20.92 35.39 20.89 35.54 20.82C35.69 20.76 35.83 20.67 35.94 20.56C36.06 20.44 36.15 20.31 36.21 20.16C36.27 20.01 36.3 19.85 36.3 19.69L36.3 16C36.3 15.74 36.22 15.48 36.07 15.28C35.92 15.07 35.71 14.91 35.46 14.83L24.38 11.14C24.13 11.05 23.86 11.05 23.61 11.14L12.53 14.83C12.28 14.91 12.07 15.07 11.92 15.28C11.77 15.48 11.69 15.74 11.69 16L11.69 19.69C11.69 19.85 11.72 20.01 11.78 20.16C11.84 20.31 11.93 20.44 12.05 20.56C12.16 20.67 12.3 20.76 12.45 20.82C12.6 20.89 12.76 20.92 12.92 20.92L14.15 20.92L14.15 29.76C13.43 30.01 12.81 30.48 12.37 31.1C11.93 31.72 11.69 32.46 11.69 33.23L11.69 35.69C11.69 35.85 11.72 36.01 11.78 36.16C11.84 36.31 11.93 36.44 12.05 36.56C12.16 36.67 12.3 36.76 12.45 36.82C12.6 36.89 12.76 36.92 12.92 36.92L35.07 36.92C35.23 36.92 35.39 36.89 35.54 36.82C35.69 36.76 35.83 36.67 35.94 36.56C36.06 36.44 36.15 36.31 36.21 36.16C36.27 36.01 36.3 35.85 36.3 35.69L36.3 33.23C36.3 32.46 36.06 31.72 35.62 31.1C35.18 30.48 34.56 30.01 33.84 29.76L33.84 20.92L35.07 20.92ZM33.84 34.46L14.15 34.46L14.15 33.23C14.15 32.9 14.28 32.59 14.51 32.36C14.74 32.12 15.05 32 15.38 32L32.61 32C32.94 32 33.25 32.12 33.48 32.36C33.71 32.59 33.84 32.9 33.84 33.23L33.84 34.46ZM16.61 29.53L16.61 20.92L19.07 20.92L19.07 29.53L16.61 29.53ZM21.53 29.53L21.53 20.92L26.46 20.92L26.46 29.53L21.53 29.53ZM28.92 29.53L28.92 20.92L31.38 20.92L31.38 29.53L28.92 29.53ZM14.15 18.46L14.15 16.88L24 13.6L33.84 16.88L33.84 18.46L14.15 18.46Z" fill="#8AC7E0" fill-opacity="1.000000" fill-rule="nonzero"/></symbol><symbol viewBox="0 0 48 48" fill="none" id="icons_shop" xmlns="http://www.w3.org/2000/svg"><desc>Created with Pixso.</desc><defs><clipPath id="jclip2_84"><rect id="jShopping / basket" rx="0.000000" width="29.314285" height="29.314285" transform="translate(9.342857 9.342857)" fill="white" fill-opacity="0"/></clipPath></defs><rect id="jicons/shop" rx="0.000000" width="47.000000" height="47.000000" transform="translate(0.500000 0.500000)" fill="#FCFEFF" fill-opacity="1.000000"/><rect id="jShopping / basket" rx="0.000000" width="29.314285" height="29.314285" transform="translate(9.342857 9.342857)" fill="#FFFFFF" fill-opacity="0"/><g clip-path="url(#jclip2_84)"><path id="jVector" d="M26.5 31.5C26.83 31.5 27.14 31.36 27.38 31.13C27.61 30.89 27.75 30.58 27.75 30.25L27.75 27.75C27.75 27.41 27.61 27.1 27.38 26.86C27.14 26.63 26.83 26.5 26.5 26.5C26.16 26.5 25.85 26.63 25.61 26.86C25.38 27.1 25.25 27.41 25.25 27.75L25.25 30.25C25.25 30.58 25.38 30.89 25.61 31.13C25.85 31.36 26.16 31.5 26.5 31.5ZM21.5 31.5C21.83 31.5 22.14 31.36 22.38 31.13C22.61 30.89 22.75 30.58 22.75 30.25L22.75 27.75C22.75 27.41 22.61 27.1 22.38 26.86C22.14 26.63 21.83 26.5 21.5 26.5C21.16 26.5 20.85 26.63 20.61 26.86C20.38 27.1 20.25 27.41 20.25 27.75L20.25 30.25C20.25 30.58 20.38 30.89 20.61 31.13C20.85 31.36 21.16 31.5 21.5 31.5ZM32.75 16.5L31.02 16.5L28.86 12.18C28.79 12.02 28.69 11.88 28.57 11.76C28.45 11.64 28.3 11.55 28.14 11.49C27.98 11.43 27.8 11.41 27.63 11.41C27.46 11.42 27.29 11.47 27.14 11.55C26.99 11.62 26.85 11.73 26.74 11.87C26.63 12 26.55 12.15 26.5 12.32C26.46 12.48 26.44 12.66 26.46 12.83C26.49 13 26.54 13.16 26.63 13.31L28.22 16.5L19.77 16.5L21.36 13.31C21.48 13.02 21.49 12.69 21.38 12.39C21.27 12.1 21.05 11.85 20.77 11.71C20.49 11.57 20.16 11.54 19.86 11.63C19.55 11.71 19.3 11.91 19.13 12.18L16.97 16.5L15.25 16.5C14.36 16.51 13.51 16.83 12.84 17.41C12.18 17.99 11.74 18.79 11.6 19.66C11.46 20.53 11.64 21.43 12.09 22.18C12.55 22.94 13.26 23.51 14.1 23.79L15.02 33.12C15.11 34.05 15.55 34.91 16.24 35.53C16.94 36.16 17.84 36.5 18.77 36.5L29.25 36.5C30.18 36.5 31.08 36.16 31.77 35.53C32.47 34.91 32.9 34.05 33 33.12L33.92 23.79C34.76 23.51 35.47 22.94 35.93 22.18C36.38 21.42 36.56 20.52 36.41 19.65C36.27 18.77 35.83 17.98 35.16 17.4C34.48 16.82 33.63 16.5 32.75 16.5ZM30.48 32.87C30.45 33.18 30.31 33.47 30.08 33.67C29.84 33.88 29.54 34 29.23 34L18.76 34C18.45 34 18.15 33.88 17.91 33.67C17.68 33.47 17.54 33.18 17.51 32.87L16.62 24L31.37 24L30.48 32.87ZM32.75 21.5L15.25 21.5C14.91 21.5 14.6 21.36 14.36 21.13C14.13 20.89 14 20.58 14 20.25C14 19.91 14.13 19.6 14.36 19.36C14.6 19.13 14.91 19 15.25 19L32.75 19C33.08 19 33.39 19.13 33.63 19.36C33.86 19.6 34 19.91 34 20.25C34 20.58 33.86 20.89 33.63 21.13C33.39 21.36 33.08 21.5 32.75 21.5Z" fill="#B9E08A" fill-opacity="1.000000" fill-rule="nonzero"/></g></symbol><symbol viewBox="0 0 48 48" fill="none" id="icons_sport" xmlns="http://www.w3.org/2000/svg"><desc>Created with Pixso.</desc><defs/><rect id="kicons/sport" rx="0.000000" width="47.000000" height="47.000000" transform="translate(0.500000 0.500000)" fill="#FCFEFF" fill-opacity="1.000000"/><path id="kVector" d="M9.69 17.92C9.69 15.64 11.56 13.79 13.86 13.79L14.55 13.79C16.86 13.79 18.72 15.64 18.72 17.92L18.72 19.99L29.26 19.99L29.26 17.92C29.26 15.64 31.13 13.79 33.44 13.79L34.12 13.79C36.43 13.79 38.3 15.64 38.3 17.92L38.3 22.54L39.8 22.54L39.8 25.45L38.3 25.45L38.3 30.07C38.3 32.35 36.43 34.2 34.12 34.2L33.44 34.2C31.13 34.2 29.26 32.35 29.26 30.07L29.26 28L18.72 28L18.72 30.07C18.72 32.35 16.86 34.2 14.55 34.2L13.86 34.2C11.56 34.2 9.69 32.35 9.69 30.07L9.69 25.45L8.18 25.45L8.18 22.54L9.69 22.54L9.69 17.92ZM31.85 28L31.9 28L31.9 25.45L31.85 25.45L31.85 22.54L31.9 22.54L31.9 19.99L31.85 19.99L31.85 17.92C31.85 17.05 32.56 16.35 33.44 16.35L34.12 16.35C35 16.35 35.71 17.05 35.71 17.92L35.71 30.07C35.71 30.94 35 31.64 34.12 31.64L33.44 31.64C32.56 31.64 31.85 30.94 31.85 30.07L31.85 28ZM29.26 22.54L29.26 25.45L18.72 25.45L18.72 22.54L29.26 22.54ZM16.14 17.92L16.14 19.99L16.09 19.99L16.09 22.54L16.14 22.54L16.14 25.45L16.09 25.45L16.09 28L16.14 28L16.14 30.07C16.14 30.94 15.43 31.64 14.55 31.64L13.86 31.64C12.99 31.64 12.28 30.94 12.28 30.07L12.28 17.92C12.28 17.05 12.99 16.35 13.86 16.35L14.55 16.35C15.43 16.35 16.14 17.05 16.14 17.92Z" fill="#ECD07C" fill-opacity="1.000000" fill-rule="evenodd"/></symbol><symbol viewBox="0 0 20 28" fill="none" id="map_icon" xmlns="http://www.w3.org/2000/svg"><defs/><path id="lIcon" d="M16.14 13.79L10 23.73L3.85 13.79C0.87 8.97 4.33 2.75 10 2.75C15.66 2.75 19.12 8.97 16.14 13.79ZM1.51 15.24C-2.61 8.59 2.17 0 10 0C17.82 0 22.6 8.59 18.48 15.24L10.91 27.48C10.49 28.17 9.5 28.17 9.08 27.48L1.51 15.24ZM10 6.89C8.47 6.89 7.24 8.13 7.24 9.65C7.24 11.18 8.47 12.41 10 12.41C11.52 12.41 12.75 11.18 12.75 9.65C12.75 8.13 11.52 6.89 10 6.89Z" fill="currentColor" fill-opacity="1.000000" fill-rule="evenodd"/></symbol><symbol viewBox="0 0 36 40" fill="none" id="play_icon" xmlns="http://www.w3.org/2000/svg"><path d="M34.5 18.4125C35.8333 19.1823 35.8333 21.1068 34.5 21.8766L3.74999 39.6301C2.41666 40.3999 0.749998 39.4377 0.749998 37.8981L0.75 2.391C0.75 0.851401 2.41667 -0.110843 3.75 0.658958L34.5 18.4125Z" fill="currentColor"/></symbol><symbol viewBox="0 0 26 26" fill="none" id="popup-close" xmlns="http://www.w3.org/2000/svg"><path fill-rule="evenodd" clip-rule="evenodd" d="M0.978718 25.021C0.219985 24.2623 0.219985 23.0321 0.978718 22.2734L22.2727 0.97936C23.0315 0.220627 24.2616 0.220627 25.0203 0.97936C25.7791 1.73809 25.7791 2.96824 25.0203 3.72697L3.72633 25.021C2.9676 25.7797 1.73745 25.7797 0.978718 25.021Z" fill="currentColor"/><path fill-rule="evenodd" clip-rule="evenodd" d="M0.978719 0.979358C1.73745 0.220626 2.9676 0.220626 3.72633 0.979359L25.0203 22.2734C25.7791 23.0321 25.7791 24.2623 25.0203 25.021C24.2616 25.7797 23.0315 25.7797 22.2727 25.021L0.978718 3.72697C0.219986 2.96824 0.219986 1.73809 0.978719 0.979358Z" fill="currentColor"/></symbol><symbol viewBox="0 0 32.666 32.667" fill="none" id="resize-down_icon" xmlns="http://www.w3.org/2000/svg"><defs/><path id="oIcon" d="M5.71 9.79C7.97 9.79 9.8 7.97 9.8 5.71L9.8 1.63C9.8 0.73 9.06 0 8.16 0C7.26 0 6.53 0.73 6.53 1.63L6.53 5.71C6.53 6.16 6.16 6.53 5.71 6.53L1.63 6.53C0.73 6.53 0 7.26 0 8.16C0 9.06 0.73 9.79 1.63 9.79L5.71 9.79ZM26.94 9.79C24.69 9.79 22.86 7.97 22.86 5.71L22.86 1.63C22.86 0.73 23.59 0 24.5 0C25.4 0 26.13 0.73 26.13 1.63L26.13 5.71C26.13 6.16 26.49 6.53 26.94 6.53L31.03 6.53C31.93 6.53 32.66 7.26 32.66 8.16C32.66 9.06 31.93 9.79 31.03 9.79L26.94 9.79ZM9.8 26.95C9.8 24.69 7.97 22.86 5.71 22.86L1.63 22.86C0.73 22.86 0 23.59 0 24.5C0 25.4 0.73 26.13 1.63 26.13L5.71 26.13C6.16 26.13 6.53 26.49 6.53 26.95L6.53 31.03C6.53 31.93 7.26 32.66 8.16 32.66C9.06 32.66 9.8 31.93 9.8 31.03L9.8 26.95ZM26.94 22.86C24.69 22.86 22.86 24.69 22.86 26.95L22.86 31.03C22.86 31.93 23.59 32.66 24.5 32.66C25.4 32.66 26.13 31.93 26.13 31.03L26.13 26.95C26.13 26.49 26.49 26.13 26.94 26.13L31.03 26.13C31.93 26.13 32.66 25.4 32.66 24.5C32.66 23.59 31.93 22.86 31.03 22.86L26.94 22.86Z" fill="currentColor" fill-opacity="1.000000" fill-rule="evenodd"/></symbol><symbol viewBox="0 0 32.666 32.667" fill="none" id="resize_icon" xmlns="http://www.w3.org/2000/svg"><desc>Created with Pixso.</desc><defs/><path id="pIcon" d="M4.08 0C1.82 0 0 1.82 0 4.08L0 8.16C0 9.06 0.73 9.79 1.63 9.79C2.53 9.79 3.26 9.06 3.26 8.16L3.26 4.08C3.26 3.63 3.63 3.26 4.08 3.26L8.16 3.26C9.06 3.26 9.8 2.53 9.8 1.63C9.8 0.73 9.06 0 8.16 0L4.08 0ZM28.58 0C30.83 0 32.66 1.82 32.66 4.08L32.66 8.16C32.66 9.06 31.93 9.79 31.03 9.79C30.13 9.79 29.4 9.06 29.4 8.16L29.4 4.08C29.4 3.63 29.03 3.26 28.58 3.26L24.5 3.26C23.59 3.26 22.86 2.53 22.86 1.63C22.86 0.73 23.59 0 24.5 0L28.58 0ZM0 28.58C0 30.83 1.82 32.66 4.08 32.66L8.16 32.66C9.06 32.66 9.8 31.93 9.8 31.03C9.8 30.13 9.06 29.4 8.16 29.4L4.08 29.4C3.63 29.4 3.26 29.03 3.26 28.58L3.26 24.5C3.26 23.59 2.53 22.86 1.63 22.86C0.73 22.86 0 23.59 0 24.5L0 28.58ZM28.58 32.66C30.83 32.66 32.66 30.83 32.66 28.58L32.66 24.5C32.66 23.59 31.93 22.86 31.03 22.86C30.13 22.86 29.4 23.59 29.4 24.5L29.4 28.58C29.4 29.03 29.03 29.4 28.58 29.4L24.5 29.4C23.59 29.4 22.86 30.13 22.86 31.03C22.86 31.93 23.59 32.66 24.5 32.66L28.58 32.66Z" fill="currentColor" fill-opacity="1.000000" fill-rule="evenodd"/></symbol><symbol viewBox="0 0 31.8988 31.8987" fill="none" id="sun_icon" xmlns="http://www.w3.org/2000/svg"><desc>Created with Pixso.</desc><defs><clipPath id="qclip41_396"><rect id="qicons/Weather/sun-one" rx="0.000000" width="30.898756" height="30.898756" transform="translate(0.500000 0.500000)" fill="white" fill-opacity="0"/></clipPath></defs><g clip-path="url(#qclip41_396)"><path id="qVector" d="M24.58 15.94C24.58 11.17 20.72 7.31 15.94 7.31C11.17 7.31 7.31 11.17 7.31 15.94C7.31 20.72 11.17 24.58 15.94 24.58C20.72 24.58 24.58 20.72 24.58 15.94Z" stroke="#3FC88B" stroke-opacity="1.000000" stroke-width="2.000000" stroke-linejoin="round"/><path id="qVector" d="M15.94 3.98C16.86 3.98 17.61 3.24 17.61 2.32C17.61 1.4 16.86 0.66 15.94 0.66C15.03 0.66 14.28 1.4 14.28 2.32C14.28 3.24 15.03 3.98 15.94 3.98Z" fill="#3FC88B" fill-opacity="1.000000" fill-rule="nonzero"/><path id="qVector" d="M25.58 7.97C26.5 7.97 27.24 7.23 27.24 6.31C27.24 5.39 26.5 4.65 25.58 4.65C24.66 4.65 23.92 5.39 23.92 6.31C23.92 7.23 24.66 7.97 25.58 7.97Z" fill="#3FC88B" fill-opacity="1.000000" fill-rule="nonzero"/><path id="qVector" d="M29.57 17.61C30.49 17.61 31.23 16.86 31.23 15.94C31.23 15.03 30.49 14.28 29.57 14.28C28.65 14.28 27.91 15.03 27.91 15.94C27.91 16.86 28.65 17.61 29.57 17.61Z" fill="#3FC88B" fill-opacity="1.000000" fill-rule="nonzero"/><path id="qVector" d="M25.58 27.24C26.5 27.24 27.24 26.5 27.24 25.58C27.24 24.66 26.5 23.92 25.58 23.92C24.66 23.92 23.92 24.66 23.92 25.58C23.92 26.5 24.66 27.24 25.58 27.24Z" fill="#3FC88B" fill-opacity="1.000000" fill-rule="nonzero"/><path id="qVector" d="M15.94 31.23C16.86 31.23 17.61 30.49 17.61 29.57C17.61 28.65 16.86 27.91 15.94 27.91C15.03 27.91 14.28 28.65 14.28 29.57C14.28 30.49 15.03 31.23 15.94 31.23Z" fill="#3FC88B" fill-opacity="1.000000" fill-rule="nonzero"/><path id="qVector" d="M6.31 27.24C7.23 27.24 7.97 26.5 7.97 25.58C7.97 24.66 7.23 23.92 6.31 23.92C5.39 23.92 4.65 24.66 4.65 25.58C4.65 26.5 5.39 27.24 6.31 27.24Z" fill="#3FC88B" fill-opacity="1.000000" fill-rule="nonzero"/><path id="qVector" d="M2.32 17.61C3.24 17.61 3.98 16.86 3.98 15.94C3.98 15.03 3.24 14.28 2.32 14.28C1.4 14.28 0.66 15.03 0.66 15.94C0.66 16.86 1.4 17.61 2.32 17.61Z" fill="#3FC88B" fill-opacity="1.000000" fill-rule="nonzero"/><path id="qVector" d="M6.31 7.97C7.23 7.97 7.97 7.23 7.97 6.31C7.97 5.39 7.23 4.65 6.31 4.65C5.39 4.65 4.65 5.39 4.65 6.31C4.65 7.23 5.39 7.97 6.31 7.97Z" fill="#3FC88B" fill-opacity="1.000000" fill-rule="nonzero"/></g></symbol></svg>