<svg width="50" height="50" viewBox="0 0 50 50" fill="none" xmlns="http://www.w3.org/2000/svg">
<path fill-rule="evenodd" clip-rule="evenodd" d="M2.92334 25C2.92334 19.1449 5.24927 13.5296 9.38945 9.38945C13.5296 5.24927 19.1449 2.92334 25 2.92334C30.8551 2.92334 36.4704 5.24927 40.6106 9.38945C44.7507 13.5296 47.0767 19.1449 47.0767 25C47.0767 30.8551 44.7507 36.4704 40.6106 40.6106C36.4704 44.7507 30.8551 47.0767 25 47.0767C19.1449 47.0767 13.5296 44.7507 9.38945 40.6106C5.24927 36.4704 2.92334 30.8551 2.92334 25ZM25 6.09001C21.3347 6.09013 17.7485 7.15545 14.6775 9.15635C11.6066 11.1573 9.18335 14.0075 7.70257 17.3604C6.2218 20.7132 5.74733 24.4241 6.33689 28.0417C6.92645 31.6592 8.55462 35.0275 11.0233 37.7367C12.5221 35.3892 14.5884 33.4573 17.0313 32.1196C19.4742 30.7819 22.2148 30.0816 25 30.0833C27.7852 30.0813 30.526 30.7815 32.969 32.1192C35.4119 33.4569 37.4781 35.3889 38.9767 37.7367C41.4454 35.0275 43.0736 31.6592 43.6631 28.0417C44.2527 24.4241 43.7782 20.7132 42.2974 17.3604C40.8167 14.0075 38.3934 11.1573 35.3225 9.15635C32.2515 7.15545 28.6653 6.09013 25 6.09001ZM36.6067 39.93C35.4271 37.8971 33.734 36.2099 31.6969 35.0375C29.6598 33.8651 27.3504 33.2487 25 33.25C22.6496 33.2487 20.3402 33.8651 18.3031 35.0375C16.2661 36.2099 14.5729 37.8971 13.3933 39.93C16.7092 42.5156 20.7952 43.9167 25 43.91C29.3733 43.91 33.4 42.4233 36.6067 39.93ZM17.1667 21.6833C17.1667 19.6058 17.992 17.6134 19.461 16.1443C20.93 14.6753 22.9225 13.85 25 13.85C27.0775 13.85 29.07 14.6753 30.539 16.1443C32.008 17.6134 32.8333 19.6058 32.8333 21.6833C32.8333 23.7609 32.008 25.7533 30.539 27.2223C29.07 28.6914 27.0775 29.5167 25 29.5167C22.9225 29.5167 20.93 28.6914 19.461 27.2223C17.992 25.7533 17.1667 23.7609 17.1667 21.6833ZM25 17.0167C24.3872 17.0167 23.7803 17.1374 23.2142 17.3719C22.648 17.6064 22.1335 17.9502 21.7002 18.3835C21.2668 18.8168 20.9231 19.3313 20.6886 19.8975C20.454 20.4637 20.3333 21.0705 20.3333 21.6833C20.3333 22.2962 20.454 22.903 20.6886 23.4692C20.9231 24.0354 21.2668 24.5498 21.7002 24.9832C22.1335 25.4165 22.648 25.7603 23.2142 25.9948C23.7803 26.2293 24.3872 26.35 25 26.35C26.2377 26.35 27.4247 25.8583 28.2998 24.9832C29.175 24.108 29.6667 22.921 29.6667 21.6833C29.6667 20.4457 29.175 19.2587 28.2998 18.3835C27.4247 17.5083 26.2377 17.0167 25 17.0167Z" fill="#258496"/>
</svg>
