<svg width="63.000000" height="27.000000" viewBox="0 0 63 27" fill="none" xmlns="http://www.w3.org/2000/svg" xmlns:xlink="http://www.w3.org/1999/xlink">
	<desc>
			Created with Pixso.
	</desc>
	<defs>
		<clipPath id="clip264_2415">
			<rect id="omni logo" rx="0.000000" width="62.000000" height="26.000000" transform="translate(0.500000 0.500000)" fill="white" fill-opacity="0"/>
		</clipPath>
	</defs>
	<rect id="omni logo" rx="0.000000" width="62.000000" height="26.000000" transform="translate(0.500000 0.500000)" fill="#FFFFFF" fill-opacity="0"/>
	<g clip-path="url(#clip264_2415)">
		<path id="Vector" d="M15.17 23.88L17.49 23.88L17.49 26.15C16.83 26.71 16.07 27 15.21 27C14.66 27 14.16 26.87 13.73 26.63C13.31 26.39 12.96 26.04 12.73 25.62C12.5 25.2 12.39 24.72 12.39 24.19C12.39 23.82 12.46 23.46 12.6 23.12C12.74 22.78 12.93 22.48 13.18 22.23C13.42 21.97 13.72 21.77 14.07 21.62C14.43 21.47 14.81 21.4 15.2 21.4C15.66 21.4 16.05 21.46 16.37 21.58C16.71 21.7 17.02 21.89 17.3 22.13L16.69 22.85C16.48 22.67 16.25 22.52 15.99 22.41C15.76 22.31 15.49 22.26 15.16 22.26C14.83 22.26 14.53 22.35 14.26 22.53C13.99 22.7 13.77 22.94 13.62 23.23C13.47 23.52 13.39 23.85 13.39 24.19C13.39 24.57 13.47 24.9 13.62 25.19C13.77 25.48 13.99 25.71 14.27 25.88C14.56 26.04 14.88 26.13 15.25 26.13C15.76 26.13 16.2 25.99 16.57 25.72L16.57 24.7L15.17 24.7L15.17 23.88ZM61.24 21.49L62.34 21.49L60.17 24.75L60.17 26.9L59.21 26.9L59.21 24.77L57.05 21.49L58.18 21.49L59.7 23.88L61.24 21.49ZM17.95 8.24C17.95 9.82 17.56 11.24 16.79 12.49C16.01 13.75 14.95 14.73 13.58 15.43C12.22 16.14 10.68 16.49 8.97 16.49C7.26 16.49 5.72 16.14 4.36 15.43C2.99 14.73 1.93 13.75 1.15 12.49C0.38 11.24 0 9.82 0 8.24C0 6.66 0.38 5.25 1.15 4C1.93 2.74 2.99 1.76 4.36 1.05C5.72 0.35 7.26 0 8.97 0C10.68 0 12.22 0.35 13.58 1.05C14.95 1.76 16.01 2.74 16.79 4C17.56 5.25 17.95 6.66 17.95 8.24ZM12.07 6.16C11.75 5.57 11.32 5.11 10.78 4.78C10.24 4.46 9.61 4.29 8.97 4.3C8.31 4.3 7.7 4.46 7.16 4.78C6.63 5.11 6.2 5.57 5.88 6.16C5.56 6.75 5.4 7.45 5.4 8.24C5.4 9.04 5.56 9.74 5.88 10.33C6.2 10.92 6.63 11.38 7.16 11.7C7.7 12.02 8.31 12.19 8.97 12.19C9.64 12.19 10.24 12.02 10.78 11.7C11.32 11.38 11.75 10.92 12.07 10.33C12.39 9.74 12.54 9.04 12.54 8.24C12.54 7.45 12.39 6.75 12.07 6.16ZM4.18 21.45L6.58 26.9L5.57 26.9L5.02 25.59L2.43 25.59L1.87 26.9L0.88 26.9L3.29 21.45L4.18 21.45ZM4.66 24.75L3.72 22.58L2.78 24.75L4.66 24.75ZM60.13 0.34L62.4 0.34L62.4 16.14L60.13 16.14L60.13 0.34ZM25.15 26.06L28.27 26.06L28.27 26.9L24.19 26.9L24.19 21.49L28.24 21.49L28.24 22.33L25.15 22.33L25.15 23.76L27.89 23.76L27.89 24.6L25.15 24.6L25.15 26.06ZM49.88 25.95C50.11 25.84 50.36 25.66 50.62 25.42L51.23 26.04C51.05 26.23 50.85 26.41 50.63 26.55C50.43 26.69 50.19 26.79 49.92 26.87C49.65 26.95 49.35 27 49.02 27C48.5 27 48.02 26.87 47.6 26.62C47.18 26.38 46.83 26.03 46.6 25.61C46.36 25.18 46.23 24.69 46.24 24.2C46.23 23.46 46.52 22.75 47.02 22.22C47.28 21.96 47.58 21.75 47.92 21.62C48.28 21.47 48.66 21.4 49.05 21.4C49.52 21.4 49.93 21.47 50.26 21.61C50.59 21.76 50.91 21.96 51.19 22.24L50.58 22.94C50.36 22.74 50.12 22.57 49.86 22.44C49.6 22.32 49.33 22.26 49.05 22.26C48.71 22.26 48.4 22.35 48.12 22.52C47.85 22.69 47.62 22.93 47.47 23.22C47.32 23.52 47.24 23.86 47.24 24.2C47.24 24.73 47.41 25.19 47.76 25.57C48.1 25.94 48.53 26.13 49.05 26.13C49.36 26.13 49.64 26.07 49.88 25.95ZM53.46 0.34L56.41 0.34L56.41 16.14L54.05 16.14L45.24 5.44L45.24 16.14L42.29 16.14L42.29 0.34L44.64 0.34L53.46 11.04L53.46 0.34ZM38.67 21.49L39.62 21.49L39.62 26.9L38.82 26.9L35.81 23.05L35.81 26.9L34.87 26.9L34.87 21.49L35.76 21.49L38.67 25.23L38.67 21.49ZM38.98 16.14L34.8 16.14L34.75 7.87L30.67 14.6L28.67 14.6L24.61 8.09L24.61 16.14L20.47 16.14L20.47 0.34L24.18 0.34L29.77 9.46L35.23 0.34L38.94 0.34L38.98 16.14Z" fill="#161616" fill-opacity="1.000000" fill-rule="nonzero"/>
	</g>
</svg>
