<svg width="94.554688" height="33.222656" viewBox="0 0 94.5547 33.2227" fill="none" xmlns="http://www.w3.org/2000/svg" xmlns:xlink="http://www.w3.org/1999/xlink">
	<desc>
			Created with Pixso.
	</desc>
	<defs>
		<clipPath id="clip264_2277">
			<rect id="domrf-bank-seeklogo" rx="0.000000" width="93.962547" height="32.629799" transform="translate(0.296053 0.296053)" fill="white" fill-opacity="0"/>
		</clipPath>
	</defs>
	<rect id="domrf-bank-seeklogo" rx="0.000000" width="93.962547" height="32.629799" transform="translate(0.296053 0.296053)" fill="#FFFFFF" fill-opacity="0"/>
	<g clip-path="url(#clip264_2277)">
		<mask id="mask264_2279" mask-type="alpha" maskUnits="userSpaceOnUse" x="0.001953" y="0.000000" width="94.737305" height="33.158203">
			<path id="Vector" d="M0 0L94.73 0L94.73 33.15L0 33.15L0 0Z" fill="#000000" fill-opacity="1.000000" fill-rule="evenodd"/>
		</mask>
		<g mask="url(#mask264_2279)">
			<path id="Vector" d="M30.59 0L30.59 0L27.63 2.93L27.63 0L24.67 0L19.73 4.87L19.73 17.55L21.71 17.55L21.71 5.85L25.65 1.95L25.65 17.55L27.63 17.55L27.63 5.85L31.57 1.95L31.57 17.55L33.55 17.55L33.55 0L30.59 0Z" fill="#1E2321" fill-opacity="1.000000" fill-rule="nonzero"/>
			<path id="Vector" d="M0 17.55L7.89 17.55L7.89 -0.01L4.93 -0.01L0 4.87L0 4.87L0 17.55ZM5.92 1.94L5.92 15.6L1.97 15.6L1.97 5.84L5.92 1.94Z" fill="#1E2321" fill-opacity="1.000000" fill-rule="nonzero"/>
			<path id="Vector" d="M17.76 0L9.87 0L9.87 17.55L17.76 17.55L17.76 0ZM11.84 1.95L15.79 1.95L15.79 15.6L11.84 15.6L11.84 1.95Z" fill="#1E2321" fill-opacity="1.000000" fill-rule="nonzero"/>
			<path id="Vector" d="M0 21.45L33.55 21.45L33.55 19.5L0 19.5L0 21.45Z" fill="#1E2321" fill-opacity="1.000000" fill-rule="nonzero"/>
			<path id="Vector" d="M0 23.4L0 33.15L1.97 33.15L1.97 31.2L13.81 31.2L13.81 23.4L0 23.4ZM11.84 29.25L1.97 29.25L1.97 25.35L11.84 25.35L11.84 29.25Z" fill="#1E2321" fill-opacity="1.000000" fill-rule="nonzero"/>
			<path id="Vector" d="M15.79 23.4L15.79 31.2L23.68 31.2L23.68 33.15L25.65 33.15L25.65 31.2L33.55 31.2L33.55 23.4L15.79 23.4ZM17.76 25.35L23.68 25.35L23.68 29.25L17.76 29.25L17.76 25.35ZM31.58 29.25L25.65 29.25L25.65 25.35L31.58 25.35L31.58 29.25Z" fill="#1E2321" fill-opacity="1.000000" fill-rule="nonzero"/>
			<path id="Vector" d="M64.73 21.94L61.18 21.94L61.18 13.16L67.04 13.16L67.04 14.69L62.91 14.69L62.91 16.46L64.73 16.46C66.51 16.46 67.6 17.6 67.6 19.2C67.6 20.8 66.52 21.94 64.73 21.94ZM64.64 17.99L62.91 17.99L62.91 20.41L64.64 20.41C65.41 20.41 65.87 19.93 65.87 19.2C65.87 18.49 65.41 17.99 64.64 17.99Z" fill="#1E2321" fill-opacity="1.000000" fill-rule="nonzero"/>
			<path id="Vector" d="M75 21.94L74.47 20.38L71.33 20.38L70.79 21.94L68.99 21.94L72.21 13.16L73.57 13.16L76.8 21.94L75 21.94ZM72.93 15.75L71.81 18.94L74.01 18.94L72.93 15.75Z" fill="#1E2321" fill-opacity="1.000000" fill-rule="nonzero"/>
			<path id="Vector" d="M83.34 21.94L83.34 18.26L80.34 18.26L80.34 21.94L78.61 21.94L78.61 13.16L80.34 13.16L80.34 16.75L83.34 16.75L83.34 13.16L85.07 13.16L85.07 21.94L83.34 21.94Z" fill="#1E2321" fill-opacity="1.000000" fill-rule="nonzero"/>
			<path id="Vector" d="M87.78 21.94L87.78 13.16L89.51 13.16L89.51 17.33L92.37 13.16L94.44 13.16L91.46 17.28L94.73 21.94L92.62 21.94L89.51 17.35L89.51 21.94L87.78 21.94Z" fill="#1E2321" fill-opacity="1.000000" fill-rule="nonzero"/>
			<path id="Vector" d="M49.33 33.15L47.36 33.15L47.36 0L49.33 0L49.33 33.15Z" fill="#7FCB2C" fill-opacity="1.000000" fill-rule="nonzero"/>
		</g>
	</g>
</svg>
