<svg width="161.267578" height="17.740234" viewBox="0 0 161.268 17.7402" fill="none" xmlns="http://www.w3.org/2000/svg" xmlns:xlink="http://www.w3.org/1999/xlink">
	<desc>
			Created with Pixso.
	</desc>
	<defs>
		<clipPath id="clip264_2298">
			<rect id="metallinvestbank-1669938975-logotic-brand" rx="0.000000" width="160.675842" height="17.147367" transform="translate(0.296053 0.296053)" fill="white" fill-opacity="0"/>
		</clipPath>
	</defs>
	<rect id="metallinvestbank-1669938975-logotic-brand" rx="0.000000" width="160.675842" height="17.147367" transform="translate(0.296053 0.296053)" fill="#FFFFFF" fill-opacity="0"/>
	<g clip-path="url(#clip264_2298)">
		<path id="Vector" d="M31.09 14.08L30.41 8.62L29.3 14.08L27.76 14.08L26.52 8.62L25.78 14.08L23.07 14.08L24.64 3.24L27.45 3.24L28.47 8.02L29.55 3.23L32.26 3.23L33.8 14.08L31.09 14.08ZM40.44 3.24L40.44 5.96L37.69 5.96L37.69 7.36L39.64 7.36L39.64 10.08L37.69 10.08L37.69 11.38L40.44 11.38L40.44 14.08L34.97 14.08L34.97 3.24L40.44 3.24ZM41.92 3.24L47.91 3.24L47.91 6.18L46.27 6.18L46.27 14.08L43.52 14.08L43.52 6.18L41.92 6.18L41.92 3.23L41.92 3.24ZM48.92 14.08L51.61 3.24L54.79 3.24L57.47 14.08L54.79 14.08L54.35 12.52L52.04 12.52L51.64 14.08L48.92 14.08ZM53.86 10.37L53.21 7.61L52.5 10.37L53.86 10.37L53.86 10.37ZM64.1 3.24L66.26 14.08L63.52 14.08L62.34 5.99L62.13 5.99L60.92 14.08L58.21 14.08L60.31 3.24L64.1 3.24ZM72.9 3.24L75.09 14.08L72.34 14.08L71.17 5.99L70.95 5.99L69.75 14.08L67.04 14.08L69.16 3.24L72.9 3.24ZM84.25 3.24L84.25 14.08L81.51 14.08L81.51 9.1L78.98 14.08L76.26 14.08L76.26 3.24L78.98 3.24L78.98 8.46L81.69 3.23L84.25 3.23L84.25 3.24ZM88.94 3.24L88.94 7.36L91.01 7.36L91.01 3.23L93.72 3.23L93.72 14.08L91.01 14.08L91.01 10.08L88.94 10.08L88.94 14.08L86.23 14.08L86.23 3.24L88.94 3.24L88.94 3.24ZM99.77 3.24C100.11 3.23 100.44 3.29 100.74 3.43C101.05 3.57 101.32 3.77 101.53 4.03C101.96 4.57 102.18 5.26 102.18 6.09C102.18 6.75 102.09 7.26 101.9 7.64C101.71 7.99 101.47 8.25 101.16 8.34C101.64 8.47 102.05 8.76 102.33 9.16C102.67 9.64 102.83 10.24 102.83 10.94C102.83 11.92 102.61 12.71 102.15 13.25C101.65 13.83 101.01 14.08 100.14 14.08L95.61 14.08L95.61 3.23L99.77 3.23L99.77 3.24ZM98.35 5.58L98.35 7.13L98.82 7.13C99.22 7.13 99.43 6.88 99.43 6.37C99.43 5.83 99.22 5.58 98.82 5.58L98.35 5.58ZM98.35 9.7L98.35 11.29L99.06 11.29C99.5 11.29 99.74 11.03 99.74 10.5C99.74 10.24 99.68 10.05 99.56 9.92C99.43 9.79 99.25 9.71 99.06 9.7L98.35 9.7ZM109.71 3.23L109.71 5.96L106.96 5.96L106.96 7.36L109.68 7.36L109.68 10.08L106.96 10.08L106.96 11.39L109.71 11.39L109.71 14.08L104.25 14.08L104.25 3.24L109.71 3.24L109.71 3.23ZM115.94 6.72C115.72 6.72 115.5 6.76 115.31 6.85C115.11 6.95 114.93 7.08 114.8 7.26C114.55 7.61 114.43 8.08 114.43 8.66C114.43 9.19 114.55 9.67 114.83 10.05C114.95 10.23 115.12 10.37 115.32 10.46C115.51 10.56 115.73 10.6 115.94 10.59C116.25 10.59 116.47 10.59 116.62 10.53C116.8 10.5 116.96 10.43 117.08 10.37L117.08 14.08C117.02 14.11 116.86 14.14 116.71 14.17C116.56 14.21 116.28 14.21 115.94 14.21C114.52 14.21 113.38 13.67 112.52 12.49C111.74 11.45 111.37 10.18 111.37 8.66C111.37 7.16 111.74 5.9 112.52 4.85C113.35 3.71 114.49 3.14 115.94 3.14C116.19 3.14 116.4 3.14 116.59 3.17C116.77 3.23 116.93 3.27 117.08 3.3L117.08 6.98C116.96 6.91 116.8 6.85 116.71 6.82C116.46 6.75 116.2 6.72 115.94 6.72ZM118.53 3.23L124.55 3.23L124.55 6.18L122.91 6.18L122.91 14.08L120.17 14.08L120.17 6.18L118.53 6.18L118.53 3.23ZM128.96 7.26L130.63 7.26C131.4 7.26 132.05 7.55 132.54 8.12C133.09 8.72 133.34 9.51 133.34 10.56C133.34 11.61 133.09 12.46 132.57 13.13C132.34 13.43 132.05 13.67 131.71 13.83C131.37 14 131 14.08 130.63 14.08L126.21 14.08L126.21 3.24L132.54 3.24L132.54 5.51L128.96 5.51L128.96 7.26L128.96 7.26ZM128.96 9.89L128.96 11.45L129.64 11.45C130.1 11.45 130.32 11.19 130.32 10.66C130.32 10.4 130.26 10.21 130.13 10.08C130.07 10.02 129.99 9.97 129.91 9.93C129.82 9.9 129.73 9.89 129.64 9.89L128.96 9.89ZM134.21 14.08L136.89 3.24L140.04 3.24L142.72 14.08L140.04 14.08L139.64 12.52L137.29 12.52L136.89 14.08L134.2 14.08L134.21 14.08ZM139.11 10.31L138.46 7.67L137.75 10.31L139.11 10.31ZM146.86 3.23L146.86 7.36L148.89 7.36L148.89 3.23L151.61 3.23L151.61 14.08L148.89 14.08L148.89 10.08L146.86 10.08L146.86 14.08L144.11 14.08L144.11 3.24L146.86 3.24L146.86 3.23ZM156.27 3.23L156.27 7.16L158.15 3.24L160.96 3.24L158.55 8.28L161.05 14.08L158.24 14.08L156.27 9.41L156.27 14.08L153.55 14.08L153.55 3.24L156.27 3.24L156.27 3.23ZM9.04 0C13.63 0.16 17.3 3.96 17.33 8.61C17.34 10.91 16.44 13.12 14.83 14.76C13.22 16.4 11.02 17.33 8.73 17.35C6.43 17.36 4.22 16.46 2.58 14.85C0.95 13.23 0.02 11.03 0 8.73C-0.01 6.49 0.84 4.33 2.37 2.7C3.91 1.08 6.01 0.11 8.24 0L8.25 2.46C6.67 2.57 5.19 3.27 4.1 4.44C3.02 5.6 2.42 7.14 2.43 8.73C2.44 9.66 2.65 10.57 3.06 11.4C3.46 12.24 4.05 12.97 4.77 13.55L7.12 7.34L5.49 7.35C5.49 7.35 5.17 7.29 4.99 7.44L4.6 7.81C4.6 7.81 4.57 6.79 4.61 6.68C4.66 6.55 4.79 5.52 5.24 5C5.7 4.5 6.44 4.43 6.44 4.43L11.66 4.39L10.91 5.18L12.72 13.4C13.4 12.81 13.95 12.08 14.32 11.26C14.7 10.44 14.88 9.54 14.88 8.64C14.87 7.06 14.25 5.54 13.16 4.39C12.07 3.24 10.59 2.55 9.01 2.46L9.04 0ZM7.04 5.12C7.2 5.12 7.33 5.24 7.33 5.39C7.33 5.53 7.2 5.66 7.04 5.66C6.88 5.66 6.75 5.54 6.75 5.39C6.75 5.24 6.88 5.12 7.04 5.12Z" fill="#004785" fill-opacity="1.000000" fill-rule="nonzero"/>
	</g>
</svg>
