<svg width="86.329102" height="30.832031" viewBox="0 0 86.3291 30.832" fill="none" xmlns="http://www.w3.org/2000/svg" xmlns:xlink="http://www.w3.org/1999/xlink">
	<desc>
			Created with Pixso.
	</desc>
	<defs>
		<clipPath id="clip264_2273">
			<rect id="partner-4" rx="0.000000" width="85.736832" height="30.239662" transform="translate(0.296053 0.296053)" fill="white" fill-opacity="0"/>
		</clipPath>
	</defs>
	<rect id="partner-4" rx="0.000000" width="85.736832" height="30.239662" transform="translate(0.296053 0.296053)" fill="#FFFFFF" fill-opacity="0"/>
	<g clip-path="url(#clip264_2273)">
		<path id="Vector" d="M6.41 0.4L4.96 4.24L25.07 4.24L26.52 0.4L6.41 0.4ZM4.24 6.16L2.79 10.01L22.89 10.01L24.34 6.16L4.24 6.16ZM2.06 11.93L0.61 15.77L20.72 15.77L22.17 11.93L2.06 11.93Z" fill="#00AAFF" fill-opacity="1.000000" fill-rule="evenodd"/>
		<path id="Vector" d="M43.36 17.24L43.36 17.32C44.28 17.64 45.16 18.22 45.62 18.58C47.04 19.72 47.67 21.23 47.67 23.19C47.67 26.41 45.91 28.73 43.03 29.46C42.15 29.71 41.23 29.79 39.52 29.79L30.78 29.79L30.78 6.24L38.51 6.24C40.1 6.24 41.19 6.32 42.15 6.56C44.95 7.29 46.79 9.17 46.79 12.14C46.79 13.73 46.2 15.08 45.24 15.97C44.83 16.38 44.24 16.87 43.36 17.24ZM35.63 19.72L35.63 25.92L38.97 25.92C39.98 25.92 40.9 25.83 41.57 25.22C42.23 24.61 42.53 23.84 42.53 22.82C42.53 22.05 42.32 21.31 41.9 20.78C41.19 19.93 40.31 19.72 38.81 19.72L35.63 19.72ZM35.59 15.65L38.3 15.65C39.14 15.65 39.56 15.65 39.98 15.52C41.11 15.2 41.82 14.22 41.82 12.88C41.82 11.29 41.06 10.59 39.98 10.27C39.52 10.15 39.06 10.11 38.14 10.11L35.59 10.11L35.59 15.65ZM54.94 29.79L54.94 10.19L47.96 10.19L47.96 6.24L67.35 6.24L65.97 10.19L59.79 10.19L59.79 29.79L54.94 29.79ZM68.86 29.79L68.86 6.24L84.57 6.24L83.19 10.19L73.66 10.19L73.66 15.4L77.55 15.4C80.68 15.4 82.31 16.14 83.44 17.07C84.32 17.81 85.83 19.44 85.83 22.66C85.83 25.83 84.28 27.59 82.98 28.48C81.48 29.5 79.89 29.79 76.67 29.79L68.86 29.79ZM73.66 25.83L77.3 25.83C78.68 25.83 79.51 25.51 80.1 24.78C80.39 24.41 80.81 23.76 80.81 22.53C80.81 21.31 80.39 20.46 79.56 19.84C79.05 19.48 78.39 19.27 77.26 19.27L73.66 19.27L73.66 25.83Z" fill="#0A2896" fill-opacity="1.000000" fill-rule="evenodd"/>
	</g>
</svg>
