<svg width="200.000000" height="77.000000" viewBox="0 0 200 77" fill="none" xmlns="http://www.w3.org/2000/svg" xmlns:xlink="http://www.w3.org/1999/xlink">
	<desc>
			Created with Pixso.
	</desc>
	<defs>
		<clipPath id="clip41_327">
			<rect id="ЛОГО" rx="0.000000" width="199.000000" height="76.000000" transform="translate(0.500000 0.500000)" fill="white" fill-opacity="0"/>
		</clipPath>
	</defs>
	<rect id="ЛОГО" rx="0.000000" width="199.000000" height="76.000000" transform="translate(0.500000 0.500000)" fill="#FFFFFF" fill-opacity="0"/>
	<g clip-path="url(#clip41_327)">
		<path id="Vector" d="M200 31.86L196.67 31.86L196.67 25.36L195.31 25.36L191.42 31.86L187.59 31.86L191.83 25C191.5 24.92 191.19 24.8 190.89 24.62C190.09 24.17 189.46 23.49 189 22.59C188.54 21.7 188.31 20.7 188.31 19.61C188.31 18.53 188.51 17.64 188.92 16.81C189.33 15.98 189.91 15.32 190.66 14.84C191.2 14.49 191.83 14.25 192.55 14.11C193.28 13.97 194.27 13.9 195.53 13.9L200 13.9L200 31.86ZM196.67 22.18L196.67 17.08L195.51 17.08C194.58 17.08 193.84 17.14 193.27 17.27C192.76 17.41 192.37 17.69 192.08 18.12C191.79 18.56 191.65 19.08 191.65 19.68C191.65 20.22 191.79 20.69 192.08 21.09C192.37 21.5 192.76 21.77 193.24 21.91C193.85 22.09 194.65 22.18 195.65 22.18L196.66 22.18L196.67 22.18ZM181.96 13.9L185.33 13.9L185.33 31.86L182.03 31.86L182.03 19.41C182.03 19.41 179.44 23.56 174.25 31.86L170.88 31.86L170.88 13.91L174.18 13.91L174.18 26.34C174.18 26.34 176.77 22.2 181.96 13.91L181.96 13.9ZM160.32 21.84L161.29 21.84C162.3 21.84 163.07 21.76 163.57 21.6C164.04 21.47 164.42 21.21 164.69 20.84C164.96 20.46 165.09 20.02 165.09 19.51C165.09 18.93 164.96 18.45 164.68 18.05C164.4 17.64 164.02 17.37 163.54 17.24C163.07 17.12 162.37 17.07 161.44 17.07L160.33 17.07L160.33 21.83L160.32 21.84ZM157 31.85L157 13.91L161.43 13.91C162.66 13.91 163.62 13.97 164.32 14.11C165.02 14.25 165.64 14.49 166.17 14.82C166.9 15.29 167.46 15.93 167.85 16.74C168.24 17.53 168.45 18.44 168.45 19.44C168.45 20.51 168.22 21.48 167.78 22.34C167.33 23.21 166.72 23.87 165.95 24.3C165.47 24.57 164.88 24.76 164.21 24.87C163.54 24.98 162.61 25.03 161.4 25.03L160.34 25.03L160.34 31.86L157.01 31.86L157 31.85ZM144.38 24.03L148.22 24.03C148.22 24.03 147.58 22.21 146.31 18.59C146.31 18.59 145.67 20.4 144.39 24.03L144.38 24.03ZM137.52 31.85C137.52 31.85 140.01 25.86 144.99 13.89L147.6 13.89C147.6 13.89 150.11 19.88 155.11 31.85L151.46 31.85C151.46 31.85 150.82 30.31 149.54 27.21L143.17 27.21C143.17 27.21 142.51 28.76 141.18 31.85L137.51 31.85L137.52 31.85ZM130.85 13.89L134.16 13.89L134.16 28.67L136.82 28.67L136.82 35.38L134.51 35.38C134.51 35.38 134.28 34.2 133.82 31.85L121.7 31.85L121.7 13.91L125.03 13.91L125.03 28.69L130.85 28.69L130.85 13.91L130.85 13.89ZM114.89 13.89L118.26 13.89L118.26 31.85L114.96 31.85L114.96 19.41C114.96 19.41 112.37 23.56 107.18 31.86L103.81 31.86L103.81 13.91L107.11 13.91L107.11 26.34C107.11 26.34 109.7 22.2 114.89 13.91L114.89 13.89ZM106.74 9.08L109.53 9.08C109.53 9.73 109.66 10.21 109.9 10.49C110.15 10.78 110.52 10.93 111.04 10.93C111.55 10.93 111.93 10.78 112.18 10.49C112.42 10.2 112.54 9.73 112.54 9.08L115.32 9.08C115.13 10.2 114.65 11.05 113.88 11.63C113.12 12.22 112.16 12.5 111.04 12.5C109.91 12.5 108.96 12.22 108.18 11.63C107.41 11.05 106.93 10.19 106.74 9.08L106.74 9.08ZM91.11 31.85L91.11 13.91L100.73 13.91L100.73 17.09L94.43 17.09L94.43 21.32L100.47 21.32L100.47 24.49L94.43 24.49L94.43 28.69L100.73 28.69L100.73 31.86L91.11 31.86L91.11 31.85ZM80.21 20.82L81.28 20.82C82.29 20.82 83.02 20.68 83.47 20.38C83.92 20.09 84.15 19.62 84.15 18.97C84.15 17.76 83.29 17.14 81.57 17.14L80.21 17.14L80.21 20.81L80.21 20.82ZM80.21 28.67L81.86 28.67C83.02 28.67 83.86 28.49 84.39 28.13C84.93 27.77 85.19 27.2 85.19 26.4C85.19 25.61 84.91 25.03 84.35 24.65C83.79 24.26 82.94 24.07 81.79 24.07L80.21 24.07L80.21 28.67L80.21 28.67ZM76.89 31.85L76.89 13.91L80.58 13.91C81.95 13.91 82.97 13.97 83.67 14.1C84.36 14.24 84.97 14.48 85.52 14.85C86.14 15.27 86.61 15.81 86.95 16.48C87.29 17.15 87.47 17.89 87.47 18.69C87.47 19.54 87.31 20.22 87.01 20.74C86.7 21.26 86.19 21.7 85.48 22.07C86.07 22.32 86.53 22.55 86.86 22.78C87.18 22.99 87.46 23.28 87.71 23.63C88.25 24.38 88.53 25.34 88.53 26.51C88.53 27.46 88.31 28.32 87.89 29.1C87.46 29.88 86.86 30.49 86.09 30.94C85.02 31.56 83.55 31.86 81.67 31.86L76.89 31.86L76.89 31.85ZM73.47 31.85L55.21 31.85L55.21 13.91L58.54 13.91L58.54 28.69L62.68 28.69L62.68 13.91L66.01 13.91L66.01 28.69L70.15 28.69L70.15 13.91L73.48 13.91L73.48 31.86L73.47 31.85Z" fill="#313535" fill-opacity="1.000000" fill-rule="nonzero"/>
		<path id="Vector" d="M198.49 71.34L199.98 71.34C199.71 71.87 199.45 72.29 199.21 72.59C198.98 72.89 198.7 73.16 198.37 73.41C197.48 74.11 196.42 74.47 195.19 74.47C194.2 74.47 193.3 74.24 192.49 73.79C191.67 73.34 191.04 72.72 190.57 71.93C190.1 71.14 189.87 70.26 189.87 69.31C189.87 68.35 190.1 67.51 190.57 66.72C191.03 65.95 191.66 65.33 192.46 64.87C193.27 64.42 194.15 64.2 195.11 64.2C196.21 64.2 197.2 64.48 198.07 65.06C198.94 65.64 199.57 66.43 199.97 67.41L198.49 67.41C198.11 66.76 197.63 66.27 197.04 65.93C196.46 65.58 195.81 65.41 195.09 65.41C194 65.41 193.09 65.79 192.33 66.54C191.58 67.3 191.21 68.23 191.21 69.33C191.21 70.44 191.59 71.35 192.34 72.11C193.11 72.86 194.03 73.24 195.13 73.24C195.83 73.24 196.43 73.09 196.94 72.8C197.45 72.51 197.96 72.02 198.47 71.34L198.49 71.34ZM181.84 64.43L183.16 64.43L183.16 68.8C183.16 68.8 184.65 67.33 187.63 64.43L189.35 64.43C189.35 64.43 187.72 66.01 184.47 69.17C184.47 69.17 186.1 70.86 189.35 74.23L187.62 74.23C187.62 74.23 186.14 72.69 183.17 69.61L183.17 74.23L181.84 74.23L181.84 64.43L181.84 64.43ZM171.21 68.56L178.7 68.56C178.47 67.59 178.03 66.82 177.34 66.26C176.66 65.69 175.85 65.41 174.9 65.41C173.95 65.41 173.18 65.7 172.49 66.27C171.81 66.85 171.39 67.62 171.2 68.56L171.21 68.56ZM180.01 69.77L171.18 69.77C171.23 70.74 171.62 71.56 172.36 72.23C173.1 72.9 173.98 73.24 174.98 73.24C175.72 73.24 176.41 73.04 177.04 72.63C177.67 72.22 178.12 71.68 178.39 71.01L179.77 71.01C179.41 72.04 178.79 72.88 177.92 73.51C177.05 74.15 176.08 74.47 175.01 74.47C174.31 74.47 173.63 74.34 172.99 74.07C172.35 73.81 171.8 73.44 171.34 72.98C170.88 72.52 170.52 71.97 170.25 71.32C169.98 70.68 169.85 70.01 169.85 69.3C169.85 68.36 170.07 67.51 170.53 66.72C170.97 65.95 171.58 65.33 172.36 64.88C173.13 64.43 173.98 64.21 174.92 64.21C175.85 64.21 176.77 64.45 177.58 64.93C178.39 65.41 179.01 66.06 179.44 66.87C179.65 67.29 179.8 67.72 179.89 68.14C179.97 68.58 180.02 69.12 180.02 69.78L180.01 69.77ZM169.51 74.23L168.11 74.23C168.11 74.23 166.93 71.47 164.57 65.93C164.57 65.93 163.39 68.7 161.02 74.23L159.62 74.23C159.62 74.23 161.02 70.96 163.83 64.43L165.32 64.43C165.32 64.43 166.71 67.7 169.52 74.23L169.51 74.23ZM158.42 74.23L157.09 74.23L157.09 65.63L151.33 65.63L151.33 74.23L150 74.23L150 64.43L158.42 64.43L158.42 74.23ZM136.81 74.23L136.81 64.43L138.87 64.43C138.87 64.43 140.01 67.08 142.28 72.39C142.28 72.39 143.42 69.74 145.7 64.43L147.75 64.43L147.75 74.23L146.43 74.23L146.43 65.88C146.43 65.88 145.24 68.66 142.85 74.23L141.71 74.23C141.71 74.23 140.52 71.45 138.14 65.88L138.14 74.23L136.82 74.23L136.81 74.23ZM129.81 65.41C128.74 65.41 127.85 65.78 127.14 66.53C126.42 67.28 126.08 68.22 126.08 69.35C126.08 70.49 126.44 71.4 127.16 72.14C127.89 72.88 128.81 73.24 129.91 73.24C131.02 73.24 131.88 72.88 132.57 72.15C133.25 71.43 133.6 70.5 133.6 69.37C133.6 68.25 133.25 67.27 132.53 66.52C131.82 65.78 130.92 65.41 129.81 65.41L129.81 65.41ZM129.91 64.19C130.87 64.19 131.72 64.41 132.49 64.86C133.25 65.31 133.85 65.93 134.28 66.71C134.72 67.5 134.93 68.38 134.93 69.35C134.93 70.82 134.46 72.05 133.52 73.01C132.58 73.98 131.38 74.47 129.95 74.47C128.96 74.47 128.07 74.25 127.28 73.8C126.48 73.36 125.85 72.75 125.41 71.97C124.96 71.18 124.73 70.31 124.73 69.34C124.73 67.85 125.22 66.62 126.19 65.65C127.17 64.68 128.41 64.2 129.91 64.2L129.91 64.19ZM116.71 64.43L118.04 64.43L118.04 68.8C118.04 68.8 119.53 67.33 122.51 64.43L124.22 64.43C124.22 64.43 122.6 66.01 119.34 69.17C119.34 69.17 120.97 70.86 124.22 74.23L122.49 74.23C122.49 74.23 121.01 72.69 118.04 69.61L118.04 74.23L116.72 74.23L116.72 64.43L116.71 64.43ZM108.19 64.43L109.51 64.43L109.51 74.22L108.19 74.22L108.19 66.31C108.19 66.31 106.21 68.95 102.24 74.22L100.92 74.22L100.92 64.43L102.24 64.43L102.24 72.34C102.24 72.34 104.22 69.7 108.19 64.43ZM102.49 60.85L103.81 60.85C103.81 61.85 104.28 62.36 105.2 62.36C106.13 62.36 106.6 61.86 106.6 60.85L107.92 60.85C107.79 61.64 107.49 62.21 107.01 62.6C106.55 62.98 105.94 63.18 105.2 63.18C104.46 63.18 103.86 62.98 103.39 62.6C102.92 62.21 102.62 61.64 102.49 60.85L102.49 60.85ZM93.92 65.41C92.85 65.41 91.95 65.78 91.24 66.53C90.54 67.28 90.18 68.22 90.18 69.35C90.18 70.49 90.54 71.4 91.27 72.14C92 72.88 92.92 73.24 94.02 73.24C95.12 73.24 95.98 72.88 96.67 72.15C97.36 71.43 97.71 70.5 97.71 69.37C97.71 68.25 97.35 67.27 96.64 66.52C95.94 65.78 95.03 65.41 93.92 65.41L93.92 65.41ZM94.02 64.19C94.97 64.19 95.82 64.41 96.59 64.86C97.36 65.31 97.96 65.93 98.39 66.71C98.82 67.5 99.04 68.38 99.04 69.35C99.04 70.82 98.57 72.05 97.62 73.01C96.68 73.98 95.49 74.47 94.05 74.47C93.07 74.47 92.18 74.25 91.38 73.8C90.59 73.36 89.96 72.75 89.51 71.97C89.07 71.18 88.84 70.31 88.84 69.34C88.84 67.85 89.32 66.62 90.3 65.65C91.28 64.68 92.52 64.2 94.01 64.2L94.02 64.19ZM88.5 74.22L87.1 74.22C87.1 74.22 85.92 71.46 83.56 65.93C83.56 65.93 82.37 68.69 80 74.22L78.61 74.22C78.61 74.22 80.01 70.95 82.81 64.43L84.3 64.43C84.3 64.43 85.69 67.69 88.5 74.22ZM76.07 64.43L77.39 64.43L77.39 74.22L76.07 74.22L76.07 66.31C76.07 66.31 74.09 68.95 70.12 74.22L68.8 74.22L68.8 64.43L70.12 64.43L70.12 72.34C70.12 72.34 72.1 69.7 76.07 64.43ZM60.74 64.43L62.07 64.43L62.07 68.87C62.07 68.87 63.36 67.39 65.93 64.43L67.59 64.43C67.59 64.43 66.2 66.02 63.41 69.2C63.41 69.2 64.8 70.87 67.59 74.23L65.93 74.23C65.93 74.23 64.64 72.66 62.07 69.53L62.07 74.23L60.74 74.23L60.74 69.53C60.74 69.53 59.46 71.1 56.89 74.23L55.22 74.23C55.22 74.23 56.61 72.55 59.4 69.2C59.4 69.2 58.01 67.6 55.22 64.43L56.89 64.43C56.89 64.43 58.17 65.91 60.74 68.87L60.74 64.43Z" fill="#313535" fill-opacity="1.000000" fill-rule="nonzero"/>
		<path id="Vector" d="M42.57 22.11C39.56 24.76 36.74 26.84 34.24 28.69C28.35 33.04 24.34 36 23.96 42.39L23.96 66.37C25.97 63.52 29.02 61.27 32.72 58.54C35.63 56.39 38.97 53.92 42.57 50.54L42.57 22.11ZM21.28 17.07L5.38 25.76L2.67 27.25L2.67 34.62C6.27 38 9.6 40.47 12.52 42.61C16.22 45.35 19.27 47.59 21.28 50.46L21.28 17.07L21.28 17.07ZM23.96 34.21C25.97 31.36 29.02 29.11 32.72 26.36C35.62 24.22 38.97 21.74 42.57 18.38L42.57 13.91L23.95 3.73L23.95 34.21L23.96 34.21ZM2.67 38.35C5.68 41 8.5 43.08 10.99 44.93C16.15 48.74 19.88 51.5 20.98 56.42C21.62 59.27 21.28 62.91 21.28 65.75L21.28 74.22L4.5 74.22C4.01 74.22 3.56 74.02 3.24 73.7C2.91 73.38 2.67 72.92 2.67 72.43L2.67 38.35L2.67 38.35ZM45.25 65.02L45.25 13.04C45.25 12.52 44.98 12.04 44.52 11.78L23.32 0.19C23.11 0.07 22.87 0 22.62 0C21.88 0 21.28 0.63 21.28 1.41L21.28 13.89L0.72 25.13C0.26 25.38 0 25.87 0 26.39L0 72.43C0 73.68 0.46 74.83 1.29 75.65C2.11 76.48 3.25 77 4.5 77L40.73 77C41.98 77 43.13 76.48 43.95 75.65C44.77 74.82 45.24 73.68 45.24 72.43L45.24 65.01L45.25 65.02ZM23.99 74.23C24.5 68.07 28.47 65.13 34.26 60.86C36.75 59 39.57 56.93 42.58 54.28L42.58 72.43C42.58 72.93 42.33 73.38 42 73.7C41.68 74.03 41.23 74.23 40.74 74.23L23.99 74.23Z" fill="#00A351" fill-opacity="1.000000" fill-rule="evenodd"/>
		<path id="Vector" d="M103.16 57.1L103.16 39.14L106.49 39.14L106.49 46.88C106.49 46.88 108.34 44.3 112.04 39.14L116.04 39.14C116.04 39.14 113.79 42.08 109.3 47.95C109.3 47.95 111.55 51 116.04 57.1L112.04 57.1C112.04 57.1 110.19 54.46 106.49 49.19L106.49 57.1L103.16 57.1ZM92.6 47.08L93.57 47.08C94.58 47.08 95.35 47 95.85 46.84C96.32 46.71 96.7 46.45 96.97 46.08C97.24 45.7 97.38 45.26 97.38 44.75C97.38 44.18 97.24 43.69 96.97 43.3C96.69 42.89 96.31 42.62 95.83 42.49C95.36 42.37 94.66 42.32 93.72 42.32L92.62 42.32L92.62 47.08L92.6 47.08ZM89.28 57.1L89.28 39.14L93.71 39.14C94.94 39.14 95.9 39.2 96.6 39.34C97.3 39.47 97.92 39.72 98.45 40.05C99.18 40.53 99.74 41.16 100.13 41.96C100.52 42.76 100.72 43.66 100.72 44.66C100.72 45.73 100.5 46.7 100.05 47.57C99.6 48.44 98.99 49.09 98.23 49.53C97.74 49.8 97.16 49.99 96.49 50.09C95.82 50.21 94.88 50.26 93.67 50.26L92.61 50.26L92.61 57.08L89.28 57.08L89.28 57.1ZM76.66 49.27L80.5 49.27C80.5 49.27 79.86 47.45 78.59 43.83C78.59 43.83 77.95 45.64 76.67 49.27L76.66 49.27ZM69.8 57.1C69.8 57.1 72.29 51.11 77.27 39.14L79.88 39.14C79.88 39.14 82.39 45.13 87.39 57.1L83.74 57.1C83.74 57.1 83.1 55.55 81.82 52.46L75.45 52.46C75.45 52.46 74.79 54 73.46 57.1L69.79 57.1L69.8 57.1ZM55.23 57.1L55.23 39.14L67.93 39.14L67.93 57.1L64.6 57.1L64.6 42.32L58.55 42.32L58.55 57.1L55.22 57.1L55.23 57.1Z" fill="#313535" fill-opacity="1.000000" fill-rule="nonzero"/>
	</g>
</svg>
